<?xml version="1.0" encoding="UTF-8"?>
<svg id="Layer_2" data-name="Layer 2" xmlns="http://www.w3.org/2000/svg" viewBox="0 0 727.9 726.53">
  <defs>
    <style>
      .cls-1 {
        fill: #fff;
      }
    </style>
  </defs>
  <g id="Layer_1-2" data-name="Layer 1">
    <g>
      <path class="cls-1" d="m158.73,353.07c-.55-8.13-7.93-13.06-15.82-10.83-6.05,1.74-9.3,6.32-9.36,14.12-.1,14.94,0,29.9-.03,44.84-.03,10.39,0,20.78-.27,31.17-.17,5.02-3.69,8.03-8.65,8.1-5.06.07-8.27-2.7-8.82-7.79-.34-3.25-.58-6.53-.62-9.77-.1-14.66-.14-29.32-.1-43.99,0-4.31-.27-8.58-1.06-12.75-1.2-6.29-2.77-12.37-7.52-17.33-10.39-10.9-31.13-10.73-41.9-2.7-4.34,3.25-6.15,4.75-11.69.51-8.48-6.49-19.41-7.55-30.25-5.26-7.38,1.57-12.95,5.57-16.92,12-4,6.53-5.3,13.84-5.47,21.26-.31,12.51-.1,25.05-.1,37.56H.02c0,4.99-.03,9.98,0,14.97.03,8.51-.14,17.09.31,25.6.34,7.01,5.88,10.94,13.84,10.63,6.6-.24,10.77-4.37,11.14-11.11.07-1.67.07-3.42.07-5.09.03-21.5.07-42.99.07-64.53,0-4.14.41-8.2,1.57-12.2,1.03-3.42,3.18-5.19,6.73-5.5,8.13-.68,11.38,1.98,11.76,10.15.96,19.62.85,39.27.27,58.92-.17,5.67-.14,11.35.14,17.02.24,4.99,2.12,9.26,7.28,11.07,5.6,1.95,10.87,1.64,15.48-2.7,1.81-1.67,2.8-3.49,2.87-5.91.21-6.12.65-12.24.68-18.35.1-20.64.03-41.29.07-61.93,0-5.74,2.29-8.03,7.93-8.27,5.78-.27,8.1,1.54,8.61,7.42.48,5.09.68,10.22.75,15.35.14,15.11-.41,30.21.41,45.25.65,12.65,6.02,23.58,18.63,28.23,10.9,4.03,22.28,3.76,33.36-.75,6.08-2.46,10.18-6.66,12.85-12.41,2.05-4.41,3.45-8.99,4.03-13.88.75-6.66.58-13.36.55-20.03-.14-20.37.72-40.74-.68-61.07Z"/>
      <path class="cls-1" d="m68.2,301.09c6.6-.07,8.24-1.74,8.48-8.85.07-2.02.1-4,.1-5.98,0-21.94-.07-43.85.1-65.76.03-5.95-.07-12.03,2.08-17.74,2.02-5.37,5.33-7.18,11.86-6.87,6.22.31,8.61,2.05,10.32,7.69,1.23,4.1,1.44,8.37,1.44,12.65.03,25.63,0,51.27.17,76.9.03,6.05,2.8,8.07,9.6,7.86,6.25-.17,7.79-1.64,7.83-7.96.07-13.67,0-27.34,0-41.01h.14c0-11.65-.03-23.34,0-35,0-4.14-.1-8.27.85-12.34,1.5-6.29,5.4-9.43,11.79-9.3,5.74.1,8.13,2.49,9.19,9.6,1.37,8.92.48,17.91.72,26.86.38,14.49-1.23,29.08.85,43.51,2.56,17.57,10.39,25.29,25.73,26.08,8.92.48,17.7-.17,24.71-6.94,6.73-6.53,8.75-14.9,8.78-23.75.17-25.91.07-51.81.07-77.72,0-2.15-.2-4.27-.92-6.32-1.33-3.96-4.17-5.98-8.37-5.88-5.67.17-8.92,4-8.92,10.77-.07,24.74-.03,49.52-.07,74.27,0,3.73.03,7.42-.85,11.04-1.44,5.98-4.24,8.65-9.71,8.99-6.08.38-9.84-2.02-11.96-7.59-1.03-2.73-1.09-5.57-1.09-8.41,0-17.94.1-35.89-.03-53.83-.07-7.55-.75-15.07-3.49-22.25-6.08-15.79-30.96-20.27-42.11-7.45-2.63,3.01-4.44,3.04-7.35.51-7.28-6.36-15.96-8.58-25.43-7.45-9.23,1.13-16.58,5.23-20.16,14.29-2.09,5.33-3.32,10.97-3.35,16.68-.14,27.2-.14,54.38-.07,81.58.03,6.63,2.73,9.16,9.06,9.13Z"/>
      <path class="cls-1" d="m206.75,406.35c-2.12.17-4.24.55-6.32.92-8.85,1.61-9.64,4.24-9.33-8.3.1-3.79,1.71-4.75,5.09-3.96,5.19,1.16,10.49.99,15.72.68,10.9-.65,16.95-6.05,18.8-16.81,1.2-6.94.89-13.94-.79-20.75-1.88-7.55-6.32-13.57-13.64-16.44-6.8-2.67-14.12-3.25-21.43-2.6-13.47,1.23-22.63,9.54-24.85,22.93-2.19,13.09-2.56,26.28-2.26,39.54,0,5.98-.2,11.96.07,17.91.27,6.12.68,12.24,1.61,18.25,2.08,14.08,8.99,25.46,23.89,27,4.82.48,9.71.62,14.49.07,11.89-1.37,20.03-8.99,22.59-20.61,1.3-5.91,1.26-11.93.58-17.84-1.67-14.73-9.47-21.05-24.23-19.99Zm-13.64-43.71c.75-3.76,3.11-6.05,7.14-5.88,3.83.14,6.32,1.98,6.84,6.12.38,2.97.65,5.91.27,8.89-.72,6.08-3.08,8.27-8.68,7.89-4.31-.27-5.84-2.46-5.95-8.51v-2.15h-.1c.14-2.12.07-4.27.48-6.36Zm14.42,72.49c-.1.85-.27,2.84-.65,4.78-.85,4.17-3.32,5.98-7.52,5.88-3.96-.1-5.95-2.22-6.32-6.02-.24-2.26-.48-4.51-.68-6.77-.65-7.01.96-9.13,7.25-9.74,5.09-.48,7.45,2.08,7.93,8.61.03.72,0,1.44,0,3.25Z"/>
      <path class="cls-1" d="m257.26,204.71c.72,2.63.75,5.33.79,8.03,0,24.64.03,49.28.07,73.92,0,2.39-.07,4.82.58,7.18,1.03,3.62,3.21,5.4,7.04,5.61,7.66.41,9.57-1.2,10.08-8.99.07-1.26.07-2.56.07-3.83v-70.47c0-5.47.79-10.73,2.87-15.86,1.57-3.83,4.37-5.09,8-5.13,4.03-.07,8.24-.89,11.14,3.45,3.11,4.68,3.69,9.77,3.69,15.11.03,23.92.03,47.81.03,71.74,0,3.28-.14,6.56.65,9.77.48,1.88,1.13,3.79,3.11,4.31,8.31,2.19,13.77,1.23,13.81-8.3.1-27.34.24-54.68-.1-82.02-.1-7.76-1.33-15.72-7.01-21.91-11.24-12.24-31.99-11.76-42.96.96-1.26,1.44-2.36,2.91-3.79.31-6.39-11.42-26.45-11.69-35.61-7.42-11.35,5.3-14.56,15.17-14.94,26.28-.44,13.64-.1,27.34-.1,41.01h-.1v39.27c0,2.73-.03,5.43,1.2,7.96,1.91,4,8.41,6.12,10.77,3.04,2.8-3.59,6.29-6.7,6.22-12.37-.27-24.33.07-48.67.14-73.04,0-4.17.68-8.17,2.19-12.1,1.13-2.87,3.11-4.61,6.05-5.5,7.59-2.26,14.05,1.3,16.13,8.99Z"/>
      <path class="cls-1" d="m341.89,299.21c5.06-.79,7.11-3.52,7.18-10.36.1-12.54.03-25.09.03-37.59h.14c0-12.68-.55-25.39.14-38,.79-14.22,6.29-20.57,20.34-18.15,4.82.82,8.07,2.87,9.02,7.76,1.81,9.54,2.08,19.21.61,28.88-.55,3.66-2.91,5.78-6.43,6.56-1.78.41-3.66.51-5.5.75-4.68.62-5.84,1.91-5.91,6.63-.1,5.95.79,6.97,6.87,7.79,7.31.99,10.22,3.96,10.87,11.35.27,3.11.24,6.25.27,9.4.03,4.99-.17,9.98.03,14.94.31,7.83,3.59,10.83,10.73,10.15,4.31-.44,6.49-3.18,6.66-9.74.24-7.83.24-15.65-.1-23.48-.27-6.12-2.53-11.55-7.25-15.89-4.1-3.79-4.1-5.84.41-9.23,4.34-3.32,6.19-7.69,7.07-12.71,1.88-10.42.79-20.68-1.67-30.9-1.3-5.43-4.44-9.36-9.02-12.41-7.48-4.96-15.76-6.22-24.5-5.81-16.78.79-29.43,12.2-30.04,29.02-.85,23.45-.65,46.96-.82,70.44-.03,4.1.17,8.24.58,12.34.61,6.56,4.07,9.23,10.29,8.27Z"/>
      <path class="cls-1" d="m371.28,167.62c4.58,2.15,9.47,2.97,14.53,2.8,1.98-.1,3.96-.14,5.95-.34,14.59-1.47,23.51-12.82,21.5-27.31-.58-4.31-2.97-6.05-8.24-6.12-3.93-.07-5.64,1.91-5.88,5.71-.14,1.98-.58,3.93-.89,5.88-1.09,6.49-5.71,10.01-13.19,10.08-5.33.07-10.15-4-11.31-9.67-.51-2.36-.85-4.78-1.09-7.18-.41-4.03-2.87-5.13-6.49-4.99-3.69.14-6.66.89-7.55,5.23-1.85,9.33,4.14,21.87,12.68,25.91Z"/>
      <path class="cls-1" d="m412.29,379.9c-1.98-13.29-6.49-25.36-18.63-33.15-6.6-4.2-13.88-5.81-21.43-6.53-14.18-1.33-27.82-.21-40.02,8.41-5.88,4.17-6.05,3.86-12-.75-1.23-.96-2.6-1.78-4-2.49-14.35-7.35-29.39-6.77-44.6-3.69-4.41.89-8.61,2.87-12.41,5.5-12.27,8.37-16.61,20.92-18.01,34.83-1.81,18.28-.58,36.71-.85,55.06-.03,4.96-.17,9.95.07,14.94.34,7.11,2.5,9.26,9.47,9.98,1.98.21,4,.31,5.98.31,23.48.03,46.99,0,70.47,0s46.14.03,69.21,0c2.53,0,5.13-.14,7.66-.41,8-.92,10.18-3.35,10.29-11.59.07-8.13.07-16.23-.14-24.37-.41-15.35,1.2-30.76-1.06-46.04Zm-135.89,58.17c-.62,2.08-1.23,4.2-3.08,5.5-2.15,1.5-4.55,1.44-6.94.58-2.26-.79-2.36-2.8-2.39-4.58-.1-6.39-.03-12.82-.03-19.21h-.24c0-5.54-.03-11.11,0-16.64,0-2.91-.2-6.08,3.55-6.8,3.66-.72,7.11-.21,9.3,3.45,1.74,2.91,2.46,6.08,2.6,9.4.48,9.57-.1,19.04-2.77,28.3Zm38.11,1.26c.03,3.35-1.09,4.78-4.68,4.89-10.39.24-10.29.38-8.54-9.95,1.78-10.46,1.71-21.05.58-31.51-1.64-15.45-13.19-23.75-28.57-21.39-10.8,1.64-10.87,1.57-7.25-8.65,3.28-9.36,9.84-14.22,19.75-14.56,3.25-.1,6.53-.14,9.81.07,8.85.58,13.74,4.51,16.47,13.02,1.64,5.19,2.46,10.53,2.49,15.96.07,8.27.03,16.51.03,24.78h-.17c0,9.09-.07,18.22.07,27.34Zm37.46-3.04c-.38,1.67-.99,3.32-1.71,4.82-1.44,2.94-3.96,4.07-7.07,3.49-3.25-.62-4.27-3.01-4.31-6.02v-18.35h-.03c0-5.57.07-11.11,0-16.68-.03-3.04.17-5.74,3.9-6.53,3.73-.75,8.13,1.09,9.33,4.24.79,2.12,1.47,4.37,1.64,6.6.75,9.57.38,19.07-1.74,28.44Zm37.66-23.68h-.14c0,8.54.03,17.09-.03,25.63-.07,5.57-.89,6.36-6.49,6.53-.31.03-.58.03-.85.03-8.41.03-8.54-.31-6.66-8.3,2.6-10.94,2.97-22.11,1.54-33.12-2.19-16.88-14.42-24.91-31.31-21.57-2.05.41-4.44,1.44-6.01-.48-1.54-1.88-.24-4.1.51-6.08,6.56-17.02,25.46-23,40.88-12.99,3.45,2.26,4.68,6.02,5.95,9.6,1.85,5.43,2.6,11.11,2.63,16.81.03,7.96,0,15.96,0,23.92Z"/>
      <path class="cls-1" d="m431.36,290.63c.61-4.41.58-8.82.58-13.23.03-21.5-.07-42.99.14-64.46.14-13.36,5.84-18.63,18.49-17.87,5.54.34,8.89,3.01,10.66,8.27,1.98,5.98,1.16,12.13,1.23,18.22.17,13.43-2.22,16.64-13.98,17.77-3.14.27-4.68,2.15-4.82,5.43-.31,6.53.72,7.93,7.18,8.99,8.07,1.3,10.36,4,10.73,12.17.38,7.83.79,15.65.58,23.48-.1,2.6.44,5.02,1.78,7.35,1.54,2.67,3.86,3.08,6.6,2.73,2.91-.34,6.02.1,7.38-3.66,1.09-2.97,2.12-5.84,2.05-9.09-.1-5.54-.24-11.11.03-16.64.41-8.68-2.39-15.93-8.92-21.67-2.19-1.91-2.02-3.49.2-5.16,3.11-2.36,5.71-5.19,6.94-8.99,3.73-11.59,3.49-23.27.48-34.93-.72-2.77-1.78-5.37-3.42-7.79-5.26-7.89-12.95-10.97-22.04-12-19.86-2.26-37.63,7.01-39,29.7-.82,13.94-.03,27.89-.48,38.35,0,16.3-.07,29.12.03,41.94.07,5.23,4.41,9.57,9.33,9.81,5.09.24,7.31-2.15,8.24-8.72Z"/>
      <path class="cls-1" d="m516.09,406.18c-3.52-1.78-3.28-3.21.51-5.06,3.9-1.88,6.7-4.85,8.51-8.61,8.34-17.4.21-39.37-17.67-46.62-18.39-7.48-37.32-7.62-56.02-1.64-13.77,4.37-22.83,13.94-26.45,28.3-3.69,14.63-3.14,29.39-1.4,44.12.82,6.8,4.51,12.44,10.53,16.37,8.27,5.33,17.23,5.19,26.38,3.93,10.46-1.47,18.52-9.02,20.2-19.28,1.47-9.02,1.71-18.15.75-27.24-1.06-10.01-7.21-15.41-17.26-15.99-5.5-.31-10.32,1.57-15.11,3.9-.72.34-1.57,1.13-2.19.1-.27-.41.07-1.37.38-1.95,4.17-8.24,10.73-13.16,20.03-13.98,4.68-.41,9.4-.65,14.08-.48,17.5.51,23.21,7.76,20.4,25.32-.55,3.25-2.8,5.13-5.98,6.02-7.9,2.22-8.58,3.21-8.54,11.45,0,5.19,1.85,7.45,6.94,8.75,7.48,1.85,9.06,3.9,9.3,11.83.41,14.66-2.36,17.6-17.02,17.74-12.1.07-24.2-.03-36.3.03-7.11.07-13.94,1.4-19.79,5.71-7.01,5.16-9.91,16.81-7.45,26.38,2.94,11.38,12.37,17.67,20.85,17.84,12.54.24,25.05.07,37.56.07,12.41.38,24.78,1.2,37.15.24,6.19-.48,9.02-3.45,8.89-9.57-.14-6.19-3.42-9.74-9.36-9.84-7.14-.1-14.25-.07-21.36-.07-14.66-.03-29.32-.03-43.99-.07-3.79,0-5.81-1.74-6.02-5.64-.2-3.93,2.09-5.33,5.43-5.64,2.26-.24,4.55-.17,6.8-.21,15.79-.38,31.61.85,47.37-.82,12.78-1.37,21.77-11.01,22.42-23.89.1-2.7.27-5.4.17-8.1-.34-9.91-3.08-18.46-12.75-23.41Zm-65.21-13.88c4.72-.24,7.07,1.16,7.93,5.16.1.41.17.82.17,1.26v9.36h.07c0,2.84.07,5.67-.03,8.51-.17,4.48-2.22,6.8-5.88,6.9-4.75.17-6.9-1.95-7.52-6.63-.82-6.25-.17-12.47.03-18.69.1-3.42,1.4-5.67,5.23-5.88Z"/>
      <path class="cls-1" d="m499.78,229.93c6.19.41,8.85-1.67,9.64-8.1.38-2.94.31-5.95.31-8.92.03-4.34.89-8.48,2.29-12.54.58-1.67,1.47-3.01,3.14-3.83,7.21-3.59,14.15-.31,15.62,7.52,2.26,11.93,2.8,23.99,2.46,36.12,0,5.67.34,11.42-.1,17.05-.58,7.62-.21,15.41-2.97,22.76-1.57,4.14-4.61,6.49-8.99,6.73-4.51.21-7.52-2.26-9.5-6.05-1.44-2.7-1.85-5.67-1.85-8.68-.03-4,.07-8-.17-11.96-.34-5.02-3.32-7.28-9.16-7.28-5.3-.03-7.83,2.08-8.07,7.21-.24,4.82-.14,9.67-.03,14.49.51,19.21,13.77,30.08,32.91,27.79,9.64-1.13,16.27-5.5,19.99-14.25,1.88-4.31,3.11-8.89,3.76-13.53,2.56-17.7,2.15-35.51,1.47-53.28-.31-7.89-.58-16.03-3.59-23.51-3.08-7.69-7.59-14.56-16.13-17.05-5.06-1.47-10.36-1.54-15.65-.92-10.9,1.23-17.5,7.42-20.75,17.6-2.46,7.72-2.15,15.72-2.08,23.68.07,6.08,2.26,8.58,7.45,8.95Z"/>
      <path class="cls-1" d="m655.8,383.93c.1-5.98-.58-11.93-1.57-17.84-1.95-11.69-8.13-20.23-19.55-23.65-11.96-3.55-23.86-3.35-34.14,5.3-2.08,1.74-4.07,2.7-6.43.58-8.03-7.18-17.67-8.44-27.96-7.62-13.88,1.09-23.31,9.02-26.49,22.59-1.37,5.84-1.95,11.83-1.95,17.77-.1,22.93-.03,45.87-.03,68.8-.03,3.32-.31,7.07,2.87,8.89,3.55,2.08,7.69,4,11.83,3.62,7.96-.68,11.21-4.85,11.21-12.99,0-22.21,0-44.43.03-66.61,0-3.55-.07-7.14.58-10.66,1.06-5.95,3.69-8.41,9.3-8.48,5.43-.07,8.65,2.53,9.71,8.17.38,2.08.55,4.24.55,6.36.07,19.52.03,39.03.1,58.55,0,5.13-.2,10.25.24,15.35.65,6.94,5.78,10.18,14.46,9.71,7.35-.41,10.25-3.42,10.63-10.49.72-12.54.51-25.05.55-37.59,0-10.66,0-21.36.03-32.02,0-2.7-.03-5.43.21-8.1.48-6.25,3.73-9.6,9.54-10.05,4.82-.38,8.51,2.94,9.81,8.78.72,3.21.62,6.49.62,9.77,0,22.93.03,45.83-.03,68.76-.03,3.79.82,6.94,4.14,9.26,4.82,3.35,10.12,3.45,15.07,1.33,4.92-2.08,7.14-6.53,6.84-12.17-1.2-21.77-.48-43.54-.14-65.31Z"/>
      <path class="cls-1" d="m667.05,294.63c.27-3.55.72-7.11.75-10.66.07-22.9.03-45.83.03-68.76,0-5.43-.44-10.87-1.78-16.1-2.5-9.64-7.42-17.5-18.15-19.24-11.14-1.81-22.39-2.8-30.14,8.2-1.47,2.12-2.53,1.33-4-.14-13.7-13.94-34.86-12.44-46.17,3.14-2.09,2.91-2.73,6.22-3.42,9.57-1.09,5.33-1.09,10.73-1.13,16.17-.1,21.05-.17,42.14-.34,63.19-.03,5.95.85,11.55,3.86,16.81.89,1.54,1.88,2.39,3.59,2.53,4.14.41,7.52-.27,9.33-4.78,1.06-2.63,1.37-5.19,1.37-7.89,0-24.06,0-48.12.03-72.18,0-5.02.48-9.95,2.8-14.53,2.19-4.27,5.98-4.75,10.15-4.78,4.03-.07,7.69.27,9.6,4.65,1.3,2.87,2.56,5.71,2.6,8.92.17,20.92,1.16,41.83.14,62.78-.38,7.07-.62,14.22.41,21.33.72,4.99,3.66,7.11,9.36,7.11,4.96-.03,7.21-1.91,7.93-6.94.31-2.12.34-4.27.34-6.39.07-23.79.1-47.57.14-71.33,0-4.03.41-7.96,1.71-11.79,2.46-7.28,5.64-9.23,13.19-8.2,6.32.85,8.34,2.63,9.54,9.02.51,2.67.75,5.4.75,8.07.07,12.54.03,25.05.03,35.89.14,15.24-.27,28.74.58,42.28.55,8.51,2.63,10.39,11.21,9.67,3.62-.31,5.43-2.05,5.67-5.61Z"/>
      <path class="cls-1" d="m726.21,404.44c-2.39-14.76-9.95-21.84-24.71-24.09-21.63-3.32-35.54,8.37-36.95,27.65-.34,4.85-.31,9.67-.41,13.09,0,4.68-.21,7.96.03,11.24.79,11.55,3.11,22.42,14.53,28.61,7.79,4.17,16.23,3.93,24.61,2.87,11.21-1.4,18.56-7.59,21.74-18.76,3.86-13.5,3.35-27.07,1.16-40.6Zm-22.83,31.72c0,2.77-.51,5.4-2.77,7.31-2.22,1.91-4.72,2.39-7.55,1.61-2.8-.79-3.66-2.8-4.1-5.37-1.06-6.08-.41-12.24-.44-18.32,0-5.26-.27-10.56.1-15.79.41-5.43,2.97-7.28,8.17-6.9,3.25.24,5.26,1.67,5.84,5.06.44,2.7.79,5.33.79,8.07-.03,8.1-.03,16.2-.03,24.33Z"/>
    </g>
    <g>
      <path class="cls-1" d="m246.89,31.53c0-10.07,9.18-17.13,18.69-17.13,12.36,0,22.51,9.11,22.5,21.25,0,11.65-8.35,17.43-20,17.43-2.22,0-4.4-.08-6.61-.08-4.74,0-9.55.71-9.55,3.6,0,3.76,4.4,4.02,9.69,4.03l24.8.05c1.47,0,2.67,1.17,2.67,2.63,0,1.47-1.2,2.63-2.67,2.63l-24.8-.05c-9.17-.04-14.96-2.75-14.95-9.14,0-6.05,6.66-9.05,12.29-9.05,2.97,0,6.09.12,9.06.12,8.68,0,14.88-3.64,14.89-12.32,0-9.06-8.18-15.71-17.09-15.72-3.04,0-6.05.82-8.68,2.7.23,0,.45-.04.68-.04,6.2,0,10.86,5.19,10.85,11.13,0,5.49-4.67,10.78-10.12,10.78-7.1,0-11.65-6.21-11.64-12.82Zm17.06,1.4c0-3.19-2.74-6.24-5.78-6.24-4.1,0-6.69,2.7-6.69,6.23,0,3.42,2.82,6.24,6.24,6.24s6.24-2.82,6.24-6.24Z"/>
      <path class="cls-1" d="m294.68,50.65v-14.51c.01-11.88,10.13-21.57,21.71-21.56,13.72,0,23.37,9.63,23.29,23.01v13.08c0,1.43-1.25,2.63-2.68,2.63l-39.69-.02c-1.43,0-2.63-1.2-2.63-2.63Zm5.27-14.39v11.76c10.1,0,21.72-10.25,21.73-20.36,0-4.7-2.66-7.78-6.76-7.78-8.19,0-14.96,7.43-14.97,16.38Zm27.1-8.48c0,8.94-6.74,16.42-12.26,20.25h19.58s0-11.79,0-11.79c.04-6.2-3.79-11.39-8.45-14.14.75,1.84,1.13,3.72,1.12,5.68Z"/>
      <path class="cls-1" d="m356.19,53.8c-.49,0-.98-.11-1.39-.41-5.07-3.2-9.5-9.33-9.5-17.03,0-13.23,10.57-21.87,23.5-21.86,13.72,0,23.6,9.82,23.59,22.15,0,9.17-6.81,17.4-16.43,17.39-8.76,0-14.88-7.15-14.87-15.12,0-7.52,6.4-15.37,14.97-15.36,1.8,0,3.68.38,5.6,1.09-3.53-3.2-7.66-4.81-12.59-4.82-10.03,0-18.53,6.53-18.54,16.49,0,5.71,3.3,10.26,7.06,12.63.83.49,1.2,1.35,1.2,2.22,0,1.31-.9,2.63-2.59,2.63Zm30.23-14.94c0-5.49-4.58-10.04-10.07-10.04-5.49,0-10,4.54-10,10.03,0,5.49,4.5,10.04,9.99,10.04,5.49,0,10.08-4.54,10.08-10.03Z"/>
      <path class="cls-1" d="m403.3,19.4l-.02,31.94c0,1.43-1.17,2.63-2.6,2.63-1.43,0-2.67-1.2-2.67-2.63l.02-31.91c0-7.85-2.17-14.13-9.76-14.14-4.28,0-7.55,2.81-8.76,6.08-.34,1.17-1.43,1.77-2.78,1.76-1.01,0-2.22-1.32-2.22-2.33C374.52,4.62,382.11,0,388.43,0c10.71,0,14.88,8.95,14.87,19.4Z"/>
      <path class="cls-1" d="m467.8,49.28v17.44c.06,1.35-.88,2.63-2.49,2.63l-30.59-.02c-1.39,0-2.63-1.13-2.63-2.48,0-1.35,1.02-2.48,2.18-2.67,6.39-1.16,11.8-5.29,14.74-10.4-2.37-.34-4.58-1.05-6.73-2.11-3.12,1.28-6.24,1.84-9.25,1.84-13.12,0-24.12-10.35-24.11-23.58,0-8,5.08-15.33,13.16-15.33,4.25,0,7.52,1.7,9.81,5.12,2.29-3.01,6.47-5.22,11.28-5.22,8.38,0,14.01,6.96,14.01,15.19,0,8.19-3.88,14.39-9.03,18.52,1.39.34,2.82.49,4.32.49,9.43,0,16.95-6.76,16.96-16,0-5.79-3.15-10.86-6.91-13.35-.79-.53-1.2-1.24-1.2-2.07,0-1.5,1.09-2.78,2.52-2.78.64,0,1.17.15,1.58.45,5.03,3.38,9.2,9.85,9.2,17.71,0,7.55-1.59,12.51-6.81,16.61Zm-53.62-19.38c0,10.34,8.48,18.31,18.82,18.31,1.2,0,2.44-.11,3.65-.34-4.09-3.65-8.23-9.96-8.22-17.44,0-1.39.27-2.63.27-4.06,0-3.57-3.04-6.54-6.09-6.54-5.3,0-8.42,4.47-8.42,10.07Zm29.54-10.13c-5.56,0-10.15,4.13-10.15,10.52,0,6.69,4.5,12.56,8.9,15.45,4.96-2.82,9.36-8.19,9.37-15.59,0-4.55-2.81-10.37-8.11-10.38Zm11.03,34.17c-.64,3.91-5,7.93-7.86,10.18h15.78s0-12.43,0-12.43c-2.52,1.24-5.15,1.99-7.93,2.25Z"/>
      <path class="cls-1" d="m498.26,24.04c0,5.07-4.36,9.21-9.44,9.2-5.11,0-9.36-4.21-9.35-9.29,0-5.04,4.25-9.28,9.44-9.28,5.07.04,9.36,4.25,9.35,9.36Zm.29,20.44c0,5.15-4.4,9.32-9.51,9.31-5.15,0-9.43-4.25-9.43-9.36,0-5.15,4.29-9.39,9.51-9.39,5.11,0,9.43,4.29,9.43,9.44Zm-9.68-25.71c-2.86,0-5.34,2.36-5.34,5.22,0,2.86,2.44,5.19,5.33,5.19s5.34-2.33,5.34-5.18c0-2.86-2.48-5.23-5.33-5.23Zm.21,20.41c-2.89,0-5.38,2.36-5.38,5.26,0,2.93,2.44,5.26,5.37,5.26,2.93,0,5.38-2.33,5.38-5.26,0-2.89-2.48-5.26-5.37-5.26Z"/>
      <path class="cls-1" d="m210.72,80.87c-2.27,0-4.41,1.56-5.01,3.19-.39,1.1-.85,1.58-2,1.58-.67,0-1.52-.87-1.52-1.54,0-.34.05-.6.12-.8,1.17-3.19,4.23-5.85,8.41-5.85,4.8,0,8.86,3.75,8.86,8.82,0,2.89-1.52,5.12-3.15,6.5,2.3,1.36,3.86,3.72,3.85,6.89,0,5.72-4.74,9.78-10.13,9.78-3.88,0-7.1-2.21-8.84-4.67-.21-.3-.32-.69-.32-1.1,0-.92.85-1.63,1.84-1.63.55,0,.96.25,1.31.74,1.12,1.59,3.35,3.19,5.88,3.2,3.65,0,6.82-2.68,6.82-6.22,0-3.74-2.66-4.89-6.57-4.92-.9,0-1.63-.69-1.63-1.7,0-1.26,1.01-1.81,2.02-1.81,3.03,0,5.44-1.7,5.45-5.3,0-2.8-2.52-5.15-5.39-5.15Z"/>
      <path class="cls-1" d="m233.44,80.89c-2.27,0-4.41,1.56-5.01,3.19-.39,1.1-.85,1.58-2,1.58-.67,0-1.52-.87-1.52-1.54,0-.34.05-.6.12-.8,1.17-3.19,4.23-5.85,8.41-5.85,4.8,0,8.86,3.75,8.86,8.82,0,2.89-1.52,5.12-3.15,6.5,2.3,1.36,3.86,3.72,3.85,6.89,0,5.72-4.74,9.78-10.13,9.78-3.88,0-7.1-2.21-8.84-4.67-.21-.3-.32-.69-.32-1.1,0-.92.85-1.63,1.84-1.63.55,0,.96.25,1.31.74,1.12,1.59,3.35,3.19,5.88,3.2,3.65,0,6.82-2.68,6.82-6.22,0-3.74-2.66-4.89-6.57-4.92-.9,0-1.63-.69-1.63-1.7,0-1.26,1.01-1.81,2.02-1.81,3.03,0,5.44-1.7,5.45-5.3,0-2.8-2.52-5.15-5.39-5.15Z"/>
      <path class="cls-1" d="m265.53,95.23c.9,0,1.61.71,1.61,1.61,0,.9-.71,1.61-1.61,1.61h-17.5c-.9-.01-1.61-.72-1.61-1.62,0-.9.71-1.61,1.61-1.61h17.5Z"/>
      <path class="cls-1" d="m285.74,97.56c0-4.48-2.52-8.77-6.88-8.78-2.55,0-4.64,2.5-4.87,4.91-.07.8-.76,1.47-1.63,1.47-.69,0-1.58-.69-1.58-1.31,0-4.66,4.02-8.29,8.39-8.29,6.15,0,9.8,5.93,9.8,11.97,0,6.29-4.12,12.03-10.11,12.03-4.5,0-8.29-3.7-8.29-8.29,0-.57.85-1.31,1.47-1.31,1.03,0,1.7.67,1.75,1.52.18,2.62,2.29,4.87,5.05,4.87,4.27,0,6.92-4.41,6.92-8.79Z"/>
      <path class="cls-1" d="m306.79,102.33c0,4.04-3.45,7.3-7.47,7.3-4.04,0-7.42-3.33-7.41-7.35,0-4.02,3.38-7.37,7.47-7.37,4.02.03,7.42,3.38,7.41,7.42Zm-7.44-4.16c-2.27,0-4.23,1.86-4.23,4.13,0,2.27,1.93,4.11,4.22,4.11,2.3,0,4.23-1.83,4.23-4.11,0-2.27-1.95-4.13-4.22-4.14Z"/>
      <path class="cls-1" d="m353.21,85.61c.8,0,1.7.62,1.7,1.29v20.78c-.01.87-.75,1.61-1.62,1.61l-16.58-.08c-.87,0-1.61-.64-1.61-1.68,0-.62.57-1.24,1.06-1.42,3.19-1.17,5.7-4.2,5.7-8.42,0-5.76-4.54-8.68-9.14-8.69-4.68,0-9.44,3-9.44,8.65,0,4.48,3.39,8.02,7.48,8.48.78.09,1.45.8,1.45,1.65,0,.69-.69,1.56-1.31,1.56-6.18,0-10.86-5.82-10.86-11.63,0-6.96,5.79-12.12,12.34-12.12,7.05,0,12.72,5.4,12.72,12.43,0,3.03-1.06,5.69-3.17,7.99l9.76.03v-19.01c.01-.78.88-1.42,1.53-1.42Z"/>
      <path class="cls-1" d="m373.51,97.61c0-4.48-2.52-8.77-6.88-8.78-2.55,0-4.64,2.5-4.87,4.91-.07.8-.76,1.47-1.63,1.47-.69,0-1.58-.69-1.58-1.31,0-4.66,4.02-8.29,8.39-8.29,6.16,0,9.8,5.93,9.8,11.97,0,6.29-4.12,12.03-10.11,12.03-4.5,0-8.29-3.7-8.29-8.3,0-.57.85-1.31,1.47-1.31,1.03,0,1.7.67,1.74,1.52.18,2.62,2.29,4.87,5.05,4.87,4.27,0,6.91-4.41,6.92-8.79Z"/>
      <path class="cls-1" d="m407.84,99.19c0,5.53-3.5,10.38-9.31,10.38-5.05,0-8.72-4.23-8.72-8.96,0-4.62,3.63-8.22,5.56-11.5-.64-.09-1.29-.14-1.88-.14-5.81,0-10.15,4.54-10.16,9.64,0,3.65,2.34,6.61,4.96,7.92.62.3.92.8.92,1.56,0,.71-.76,1.49-1.47,1.49-.34,0-.64-.07-.87-.18-3.6-1.77-6.73-5.7-6.72-10.75,0-7.6,6.32-12.93,13.9-12.92,1.01,0,1.88.25,2.53.25h.05c.07-.37.12-.73.12-1.08,0-2.3-1.42-4.18-2.91-5.1-.53-.3-.78-.71-.78-1.24,0-.92.64-1.74,1.49-1.74.37,0,.71.09.99.25,2.32,1.45,4.41,4.3,4.41,7.9,0,.67-.07,1.35-.23,2.07,4.06,1.82,8.15,6.32,8.15,12.15Zm-3.24.02c0-4.32-3.1-7.74-6.06-9.14-1.54,2.92-5.52,6.38-5.52,10.4,0,3.4,2.29,5.9,5.69,5.91,3.67,0,5.88-3.76,5.88-7.16Z"/>
      <path class="cls-1" d="m414.47,102.09c0,1.79,1.19,3.42,2.43,3.95.8.34,1.19.8,1.19,1.38,0,.94-.6,1.79-1.45,1.79-.34,0-.6-.05-.8-.14-2.43-1.04-4.59-3.61-4.59-6.89,0-4.34,3.36-7.67,7.65-7.67,4.2,0,7.58,3.56,7.57,7.6,0,1.29-.34,2.6-1.1,3.88h11.87s0-5.46,0-5.46c-.55.07-1.03.09-1.54.09-4.96,0-9.3-3.17-9.3-7.95,0-4.13,3.4-7.09,7.4-7.09,4.5,0,6.7,3.1,6.7,7.47v3.24c3.21-1.49,6.41-4.7,7.1-8.56.21-1.13.51-2.14,1.56-2.13,1.1,0,1.77.64,1.77,1.61v20.42c-.01.87-.75,1.61-1.62,1.61l-28.11-.02c-.85,0-1.58-.67-1.58-1.61,0-.71.48-1.29.94-1.47,1.4-.6,2.67-2.09,2.67-3.99,0-2.48-1.93-4.41-4.36-4.41-2.43,0-4.41,2.02-4.41,4.36Zm15.18-9.48c0,3.01,2.89,4.8,6.08,4.8.51,0,1.01-.02,1.56-.11v-4.27c0-2.89-.91-4.2-3.44-4.2-2.25,0-4.2,1.63-4.21,3.79Zm10.81,7.17v6.22s7.25,0,7.25,0v-11.41c-1.9,2.43-4.34,4.15-7.25,5.19Z"/>
      <path class="cls-1" d="m457.61,88.61v19.52c-.01.87-.72,1.61-1.6,1.61-.87,0-1.63-.74-1.63-1.61v-19.5c.01-4.8-1.32-8.64-5.96-8.64-2.62,0-4.62,1.72-5.35,3.72-.21.71-.87,1.08-1.7,1.08-.62,0-1.36-.8-1.35-1.42,0-3.79,4.64-6.61,8.5-6.61,6.54,0,9.09,5.47,9.09,11.85Z"/>
      <path class="cls-1" d="m490.25,108.08c0-1.26.99-1.56,2.21-1.56,2.27,0,4.32-1.93,4.32-4.29,0-3.03-2.38-4.53-5.51-4.71,0,6.54-3.38,12.24-9.91,12.23-3.1,0-5.65-1.77-7.05-3.54-1.17,1.88-3.29,3.42-6.16,3.42-3.77,0-7.14-3.08-7.14-6.76,0-5.95,4.87-8.4,10.98-8.54.99-4.45,4.12-8.63,9.44-8.63,5.3,0,8.4,4.14,9.43,8.57,4.91.09,9.09,2.88,9.09,7.93,0,4.04-3.4,7.53-7.56,7.53-1.22,0-2.16-.46-2.16-1.65Zm-22.23-1.69c2.43,0,4.16-1.63,4.16-4.29-.39-1.42-.55-2.87-.55-4.52-4.04.16-7.4,1.69-7.4,5,0,2.09,1.74,3.81,3.79,3.81Zm6.83-8.88c0,4.52,2.06,9.07,6.56,9.07,4.52,0,6.64-4.43,6.64-9.07h-13.2Zm12.7-3.21c-.85-2.76-2.82-5.4-6.1-5.4s-5.28,2.66-6.11,5.39h12.22Z"/>
    </g>
    <g>
      <path class="cls-1" d="m147.67,686.19c4.17,0,7.27,1.06,9.33,3.19,2.05,2.12,3.08,5.28,3.08,9.46v5.51c0,3.74-.83,6.56-2.49,8.44s-4.15,2.83-7.46,2.83h-7.87c-1.78,0-2.67.78-2.67,2.33s.89,2.33,2.67,2.33h17.65l-.54,3.46h-17.57c-2.17,0-3.81-.49-4.9-1.47-1.1-.98-1.64-2.42-1.64-4.31s.55-3.33,1.64-4.3c1.09-.97,2.73-1.46,4.9-1.46h7.35c2.21,0,3.86-.65,4.95-1.94,1.09-1.29,1.64-3.27,1.64-5.93v-5.51c0-2.97-.67-5.19-2.02-6.65-1.35-1.46-3.4-2.19-6.16-2.19-1.86,0-3.4.29-4.62.88-1.22.59-2.12,1.42-2.71,2.49-.59,1.07-.88,2.33-.88,3.79v.02h.37l-.29,1.72v4.29c0,1.29.26,2.26.78,2.9.52.65,1.31.97,2.38.97,1,0,1.74-.3,2.24-.91.5-.6.75-1.49.75-2.65v-2.57c0-1.14-.25-2.01-.74-2.59-.49-.58-1.2-.87-2.13-.87-.8,0-1.48.2-2.05.6-.56.4-.99.97-1.29,1.7l-.2-1.4c.26-1.42.82-2.5,1.68-3.25.86-.74,2.01-1.12,3.47-1.12,1.76,0,3.09.54,3.98,1.63s1.34,2.7,1.34,4.84v2.99c0,2.27-.58,4.01-1.73,5.21-1.15,1.2-2.94,1.8-5.35,1.8s-4.22-.64-5.4-1.91c-1.19-1.27-1.78-3.15-1.78-5.61v-4.9c0-3.87,1.02-6.81,3.08-8.82,2.05-2.01,5.13-3.01,9.23-3.01Z"/>
      <path class="cls-1" d="m176.25,689.94c-2.73,0-4.71.72-5.96,2.16-1.24,1.44-1.86,3.71-1.86,6.81v16.71h-4.19v-16.67c0-4.22.99-7.39,2.98-9.53,1.99-2.14,5-3.21,9.03-3.21s7.04,1.07,9.02,3.22c1.98,2.15,2.97,5.33,2.97,9.55v16.64h-4.22v-16.71c0-3.06-.64-5.31-1.92-6.78-1.28-1.46-3.23-2.19-5.85-2.19Zm-9.85,22.25h20.83l.39,3.43h-22.94l1.72-3.43Zm12.82-13.19v.59c0,1.88-.21,3.65-.64,5.31s-1.03,3.17-1.83,4.52c-.79,1.36-1.74,2.54-2.86,3.55l-3.95-.66c1.05-1.06,1.94-2.25,2.68-3.55.74-1.31,1.32-2.73,1.72-4.26s.6-3.19.6-4.95v-.56c0-1.73-.33-3.04-.98-3.93-.65-.89-1.66-1.34-3.01-1.34-.38,0-.78.05-1.2.15-.43.1-.86.28-1.3.54l1.08-2.89c.46-.2.94-.34,1.46-.43.51-.09.98-.13,1.38-.13,2.25,0,3.96.68,5.11,2.05,1.15,1.36,1.73,3.37,1.73,6.02Z"/>
      <path class="cls-1" d="m205.37,690.06c-2.91,0-5.08.8-6.51,2.4-1.43,1.6-2.14,4.03-2.14,7.28v5.59c0,2.14.22,4.08.65,5.81.43,1.73,1.03,3.23,1.8,4.48h-4.53c-.77-1.18-1.34-2.66-1.72-4.45-.38-1.79-.56-3.75-.56-5.87v-5.61c0-4.43,1.07-7.78,3.2-10.06s5.35-3.42,9.67-3.42,7.46,1.12,9.58,3.36c2.12,2.24,3.19,5.55,3.19,9.93v8.14c0,2.83-.64,4.96-1.91,6.38-1.27,1.43-3.18,2.14-5.71,2.14s-4.39-.68-5.66-2.03c-1.27-1.36-1.91-3.35-1.91-5.98v-4.78c0-2.52.49-4.39,1.48-5.62.99-1.23,2.43-1.85,4.33-1.85,1.44,0,2.61.35,3.5,1.04.9.69,1.5,1.66,1.79,2.9l-.07,1.42c-.38-.54-.85-.96-1.42-1.25-.57-.29-1.23-.44-1.98-.44-1.14,0-1.99.34-2.55,1.02-.56.68-.83,1.71-.83,3.1v4.51c0,1.42.29,2.49.86,3.2.57.71,1.4,1.07,2.5,1.07s1.97-.38,2.52-1.14c.56-.76.83-1.94.83-3.54v-7.03l-.39-1.72h.47v-.02c0-1.91-.31-3.53-.94-4.86-.63-1.33-1.57-2.34-2.82-3.04-1.25-.69-2.81-1.04-4.69-1.04Z"/>
      <path class="cls-1" d="m211.81,682.53c0-2.48.67-4.39,2.01-5.71,1.34-1.32,3.23-1.98,5.69-1.98s4.33.66,5.65,1.97c1.31,1.32,1.97,3.25,1.97,5.8v33.01h-4.36v-33.09c0-1.36-.27-2.37-.82-3.05-.55-.68-1.36-1.02-2.44-1.02s-1.9.33-2.48,1c-.57.67-.86,1.67-.86,2.99v2.23h-4.36v-2.16Z"/>
      <path class="cls-1" d="m249.65,711.23c.93-.51,1.66-1.26,2.19-2.27.53-1,.94-2.23,1.24-3.66.16-1,.31-2.11.44-3.35.13-1.23.23-2.49.31-3.76.07-1.27.11-2.48.11-3.6,0-1.54-.31-2.68-.92-3.42-.61-.74-1.52-1.12-2.73-1.12-.98,0-1.8.25-2.46.76-.66.51-1.13,1.19-1.41,2.06l-1.64-2.6h.88c.34-1.24,1-2.22,1.98-2.94.98-.72,2.29-1.08,3.92-1.08,2.22,0,3.89.67,5.01,2.01,1.12,1.34,1.68,3.35,1.68,6.03,0,1.24-.04,2.52-.12,3.85-.08,1.32-.2,2.63-.36,3.93-.16,1.3-.36,2.54-.6,3.74-.34,1.6-.85,2.99-1.51,4.17-.66,1.18-1.6,2.15-2.83,2.92l-1.47.96c-.73.67-1.75,1.25-3.04,1.74-1.29.49-2.84.74-4.66.74-4.08,0-7.14-1.09-9.18-3.27s-3.05-5.45-3.05-9.82v-8.53c0-2.75.65-4.84,1.94-6.3,1.29-1.45,3.18-2.18,5.66-2.18,1.94,0,3.46.42,4.56,1.26,1.09.84,1.81,2.06,2.16,3.66l.56.86c.1.36.16.73.2,1.11.03.38.07.8.1,1.24l.44,9.12c.11,1.88.47,3.47,1.08,4.78.6,1.31,1.51,2.3,2.72,2.97l1.32.59c.56.29,1.17.52,1.84.67.67.16,1.41.23,2.21.23,2.65,0,4.62-.77,5.91-2.3,1.29-1.54,1.94-3.87,1.94-7.01v-6.03c0-2.22-.23-4.2-.69-5.93-.46-1.73-1.11-3.21-1.96-4.44h4.36c.87,1.23,1.52,2.72,1.96,4.49.44,1.76.66,3.75.66,5.96v5.98c0,4.3-.95,7.52-2.85,9.67-1.9,2.15-4.81,3.22-8.71,3.22-1.81,0-3.37-.25-4.66-.74-1.29-.49-2.3-1.07-3.04-1.74l-1.47-.93c-1.57-.93-2.75-2.19-3.54-3.77-.79-1.58-1.25-3.52-1.38-5.81l-.44-8.95c-.08-1.42-.36-2.5-.83-3.23-.47-.74-1.26-1.1-2.35-1.1s-1.96.38-2.51,1.15c-.55.77-.82,1.91-.82,3.43v8.6c0,3.19.7,5.56,2.1,7.13,1.4,1.57,3.49,2.35,6.29,2.35.82,0,1.57-.08,2.27-.23.69-.15,1.32-.38,1.87-.67l1.35-.59Zm1.37,12.16h14.83l-.2,3.14h-20.46l-.42-3.01c1.54-.67,2.94-1.45,4.22-2.33s2.33-1.86,3.16-2.94c.83-1.08,1.36-2.23,1.57-3.46l4.12.29c-.25,1.13-.69,2.21-1.32,3.23s-1.43,1.97-2.37,2.83c-.94.86-1.98,1.61-3.12,2.24Zm11.54-10.86l4.04-1.74v15.73h-4.04v-13.99Z"/>
      <path class="cls-1" d="m274.16,699.15c-.88,0-1.54-.26-1.96-.78-.42-.52-.64-1.26-.64-2.21v-.32c0-.95.21-1.68.64-2.19s1.08-.77,1.96-.77,1.52.26,1.95.77c.43.51.65,1.25.65,2.19v.32c0,.95-.22,1.68-.65,2.21-.43.52-1.08.78-1.95.78Zm0,16.94c-.88,0-1.54-.26-1.96-.78-.42-.52-.64-1.26-.64-2.21v-.32c0-.95.21-1.68.64-2.19s1.08-.77,1.96-.77,1.52.26,1.95.77c.43.51.65,1.25.65,2.19v.32c0,.95-.22,1.68-.65,2.21-.43.52-1.08.78-1.95.78Z"/>
      <path class="cls-1" d="m321.21,705.47c0-1.75-.33-3.03-.99-3.86-.66-.82-1.69-1.24-3.08-1.24h-20.93c-1.39,0-2.43.4-3.11,1.2-.69.8-1.03,2.06-1.03,3.77v2.84c0,1.44.27,2.52.82,3.23.55.72,1.37,1.08,2.46,1.08.93,0,1.67-.25,2.23-.74.56-.49.93-1.15,1.13-1.99l1.08,2.4-.34.05c-.31,1.19-.89,2.14-1.73,2.86-.84.71-2.04,1.07-3.59,1.07-2.09,0-3.67-.66-4.74-1.98-1.07-1.32-1.6-3.27-1.6-5.83v-2.94c0-2.83.67-4.96,2.01-6.4,1.34-1.44,3.35-2.16,6.03-2.16h21.89c2.6,0,4.55.71,5.85,2.12,1.3,1.41,1.95,3.53,1.95,6.36v2.48c0,1.6-.15,3.08-.45,4.42-.3,1.35-.77,2.48-1.41,3.39h-4.44c.62-.93,1.11-2.05,1.47-3.36s.54-2.77.54-4.39v-2.4Zm-14.36-19.34c2.84,0,4.98.8,6.41,2.39,1.43,1.59,2.14,3.96,2.14,7.1v11.03c0,3.14-.71,5.51-2.14,7.11-1.43,1.6-3.57,2.4-6.41,2.4-1.81,0-3.35-.34-4.6-1.03-1.25-.69-2.16-1.7-2.73-3.04l-.56-1.05c-.21-.62-.38-1.29-.49-2.02-.11-.73-.17-1.52-.17-2.36v-11.03c0-3.14.72-5.5,2.16-7.1,1.44-1.59,3.57-2.39,6.4-2.39Zm0,26.25c2.89,0,4.34-1.9,4.34-5.71v-11.1c0-1.93-.35-3.35-1.05-4.28-.7-.92-1.8-1.38-3.28-1.38-2.89,0-4.34,1.89-4.34,5.66v11.1c0,3.81,1.45,5.71,4.34,5.71Z"/>
      <path class="cls-1" d="m341.53,706.75v-10.96c0-1.9-.35-3.31-1.04-4.25s-1.75-1.41-3.17-1.41-2.48.46-3.17,1.37-1.04,2.3-1.04,4.14v2.43h-4.26v-2.4c0-3.14.71-5.5,2.13-7.08,1.42-1.58,3.55-2.38,6.37-2.38s5,.8,6.42,2.41,2.13,4.01,2.13,7.19v10.88c0,3.15-.71,5.54-2.13,7.16s-3.56,2.43-6.42,2.43-4.95-.8-6.37-2.39c-1.42-1.59-2.13-3.94-2.13-7.05v-2.62h4.26v2.67c0,1.81.35,3.17,1.04,4.08.69.91,1.75,1.36,3.17,1.36s2.48-.47,3.17-1.4c.69-.93,1.04-2.33,1.04-4.19Z"/>
      <path class="cls-1" d="m349.64,696.43c0-3.4.68-5.95,2.05-7.65,1.36-1.7,3.45-2.55,6.26-2.55,2.14,0,3.8.49,4.99,1.47,1.19.98,1.92,2.39,2.19,4.22l.12,9.12h-2.25v-5.15c0-3.74-1.46-5.61-4.39-5.61-3.07,0-4.61,2.05-4.61,6.15v8.48c0,2.25.24,4.29.71,6.09.47,1.81,1.09,3.35,1.86,4.62h-4.51c-.8-1.21-1.41-2.74-1.81-4.58-.41-1.85-.61-3.9-.61-6.15v-8.46Zm13.36,1.54h4.36v17.55h-4.36v-17.55Zm17.72-1.67v8.5c0,2.34-.24,4.4-.72,6.2-.48,1.8-1.24,3.33-2.27,4.61h-3.82v-.27c.75-1.24,1.35-2.75,1.79-4.52.44-1.77.66-3.75.66-5.94v-8.46c0-4.1-1.54-6.15-4.61-6.15-1.49,0-2.59.47-3.31,1.4-.72.93-1.08,2.34-1.08,4.24v5.15l-3.58-.74.12-8.41h1.35c.28-1.83,1.01-3.24,2.19-4.22,1.18-.98,2.85-1.47,4.99-1.47,2.83,0,4.91.84,6.26,2.52,1.35,1.68,2.02,4.2,2.02,7.55Zm-3.04,15.83h10.64l-.49,3.48h-13.77l3.63-3.48Zm7.77,0h4.36v3.48h-4.8l.44-3.48Zm1.81-25.17h4.34v28.65h-4.34v-28.65Z"/>
      <path class="cls-1" d="m395.94,696.43c0-3.4.68-5.95,2.05-7.65,1.36-1.7,3.44-2.55,6.24-2.55,2.14,0,3.79.49,4.96,1.48,1.17.99,1.9,2.39,2.19,4.2v9.21l-2.13-.1v-5.12c0-3.76-1.45-5.64-4.36-5.64-3.06,0-4.58,2.05-4.58,6.15v8.48c0,2.25.24,4.29.71,6.09.47,1.81,1.09,3.35,1.86,4.62h-4.51c-.8-1.21-1.41-2.74-1.81-4.58-.41-1.85-.61-3.9-.61-6.15v-8.46Zm13.31,1.64h4.36v17.45h-4.36v-17.45Zm8.58-7.79c-1.44,0-2.5.45-3.19,1.36-.69.91-1.03,2.28-1.03,4.13v5.17l-3.58-.61.12-8.41h1.35c.26-1.83.97-3.24,2.12-4.22,1.15-.98,2.77-1.47,4.87-1.47,2.66,0,4.64.78,5.93,2.35,1.29,1.57,1.94,3.9,1.94,7.01,0,1.19-.03,2.43-.1,3.7s-.13,2.55-.21,3.82c-.07,1.27-.11,2.51-.11,3.7,0,1.85.33,3.22,1,4.12.67.9,1.7,1.35,3.09,1.35s2.49-.47,3.16-1.42,1-2.39,1-4.34v-8.7c0-2.3-.25-4.36-.76-6.18-.51-1.81-1.19-3.36-2.06-4.63h4.39c.93,1.26,1.63,2.81,2.1,4.64.47,1.84.7,3.92.7,6.24v8.6c0,6.49-2.84,9.73-8.53,9.73-2.81,0-4.92-.78-6.34-2.34-1.41-1.56-2.12-3.87-2.12-6.92,0-1.21.04-2.45.11-3.71.07-1.27.15-2.54.22-3.81.07-1.27.11-2.51.11-3.7,0-1.83-.34-3.2-1.03-4.1-.69-.91-1.74-1.36-3.16-1.36Z"/>
      <path class="cls-1" d="m435.59,680.79c1.32,0,2.31-.36,2.95-1.08.65-.72.97-1.69.97-2.92v-1h3.8v1.03c0,1.49-.27,2.78-.82,3.87-.55,1.09-1.39,1.94-2.52,2.55s-2.59.91-4.38.91-3.21-.3-4.35-.91-1.98-1.45-2.52-2.55c-.55-1.09-.82-2.39-.82-3.87v-1.03h3.82v1c0,1.21.32,2.18.96,2.9.64.73,1.61,1.09,2.92,1.09Z"/>
      <path class="cls-1" d="m460.32,690.13c-1.81,0-3.16.56-4.04,1.69-.88,1.13-1.32,2.83-1.32,5.12v8.23c0,2.19.22,4.17.66,5.94.44,1.77,1,3.27,1.67,4.5h-4.51c-.7-1.16-1.24-2.63-1.62-4.4-.38-1.77-.56-3.76-.56-5.97v-8.31c0-3.56.81-6.24,2.44-8.04,1.63-1.8,4.06-2.7,7.29-2.7s5.69.89,7.3,2.68c1.62,1.79,2.43,4.44,2.43,7.95v8.28c0,2.27-.22,4.28-.67,6.03-.45,1.75-1.19,3.23-2.22,4.46h-3.82v-.27c.7-1.21,1.27-2.67,1.7-4.39.43-1.72.65-3.64.65-5.78v-8.23c0-2.29-.44-3.99-1.32-5.12s-2.23-1.69-4.04-1.69Zm6.96,21.98h12.94v3.5h-16.86l3.92-3.5Zm9.24-25.15h4.34v28.65h-4.34v-28.65Z"/>
      <path class="cls-1" d="m491.47,723.73c-2.17,0-3.81-.49-4.9-1.47s-1.64-2.42-1.64-4.31.55-3.33,1.64-4.3c1.09-.97,2.73-1.46,4.9-1.46h10.83c1.47,0,2.57-.34,3.3-1.02.73-.68,1.09-1.71,1.09-3.1v-.51c0-1.41-.32-2.44-.97-3.1s-1.65-1.02-3-1.09l-1.42-.07v-3.63l1.35-.07c1.27-.06,2.21-.4,2.82-1.02.6-.61.91-1.56.91-2.83v-.39c0-1.78-.65-3.12-1.96-4.02-1.31-.9-3.29-1.35-5.96-1.35-2.25,0-4.07.33-5.45.98-1.38.65-2.39,1.52-3.03,2.61-.64,1.09-.96,2.28-.96,3.59v.02h.39l-.32,1.67v4.34c0,2.55,1,3.82,3.01,3.82.95,0,1.66-.29,2.13-.88.47-.59.71-1.46.71-2.62v-2.7c0-1.11-.23-1.95-.7-2.52-.47-.57-1.15-.86-2.05-.86-.75,0-1.4.2-1.94.61-.54.41-.95.99-1.23,1.74l-.15-1.45c.25-1.44.78-2.52,1.61-3.26.83-.74,1.95-1.1,3.37-1.1,1.72,0,3.01.54,3.87,1.61s1.3,2.67,1.3,4.79v3.14c0,2.25-.57,3.97-1.7,5.16-1.14,1.19-2.89,1.78-5.26,1.78s-4.13-.63-5.29-1.9c-1.16-1.27-1.74-3.12-1.74-5.58v-4.68c0-4.12,1.16-7.16,3.47-9.13,2.31-1.97,5.62-2.95,9.94-2.95,4.07,0,7.13.74,9.19,2.21,2.06,1.47,3.09,3.64,3.09,6.52v.52c0,1.76-.39,3.13-1.18,4.1s-2,1.6-3.65,1.88v.12c1.76.25,3.06.89,3.9,1.94.83,1.05,1.25,2.54,1.25,4.48v.61c0,2.32-.64,4.07-1.91,5.26-1.27,1.19-3.22,1.78-5.83,1.78h-11.35c-1.8,0-2.7.78-2.7,2.33s.9,2.33,2.7,2.33h18.9l-.54,3.46h-18.85Zm16.17-3.46h18.38l.02,3.46h-18.41v-3.46Zm14.26,3.46c-.52,0-.97-.13-1.34-.39-.37-.26-.73-.56-1.09-.91-.36-.34-.79-.62-1.3-.83-.88-.39-1.57-.91-2.07-1.56-.5-.65-.75-1.55-.75-2.71,0-1.67.55-2.94,1.64-3.82,1.09-.88,2.73-1.32,4.9-1.32h10.83c1.47,0,2.57-.34,3.3-1.02.73-.68,1.09-1.71,1.09-3.1v-.54c0-1.4-.32-2.43-.97-3.09-.65-.65-1.65-1.01-3-1.08l-1.42-.07v-3.63l1.35-.07c1.27-.06,2.21-.4,2.82-1.02s.91-1.56.91-2.83v-.39c0-1.78-.65-3.12-1.96-4.02-1.31-.9-3.29-1.35-5.96-1.35-2.25,0-4.07.33-5.45.98-1.38.65-2.39,1.52-3.03,2.61-.64,1.09-.96,2.28-.96,3.59v.02h.39l-.32,1.67v4.34c0,2.55,1,3.82,3.01,3.82.95,0,1.66-.29,2.13-.88.47-.59.71-1.46.71-2.62v-2.7c0-1.11-.23-1.95-.7-2.52-.47-.57-1.15-.86-2.05-.86-.75,0-1.4.2-1.94.61-.54.41-.95.99-1.22,1.74l-.15-1.45c.25-1.44.78-2.52,1.61-3.26.82-.74,1.95-1.1,3.37-1.1,1.71,0,3.01.54,3.87,1.61.87,1.07,1.3,2.67,1.3,4.79v3.14c0,2.25-.57,3.97-1.7,5.16-1.14,1.19-2.89,1.78-5.26,1.78s-4.13-.63-5.29-1.9c-1.16-1.27-1.74-3.12-1.74-5.58v-4.68c0-4.12,1.16-7.16,3.47-9.13,2.31-1.97,5.62-2.95,9.94-2.95,4.07,0,7.13.74,9.19,2.21,2.06,1.47,3.09,3.64,3.09,6.52v.52c0,1.76-.39,3.13-1.18,4.1s-2,1.6-3.65,1.88v.12c1.76.25,3.06.89,3.9,1.94s1.25,2.54,1.25,4.48v.61c0,2.32-.64,4.07-1.91,5.26-1.27,1.19-3.22,1.78-5.83,1.78h-11.35c-1.8,0-2.7.78-2.7,2.33s.9,2.33,2.7,2.33h18.9l-.54,3.46h-18.85Z"/>
      <path class="cls-1" d="m535.05,682.53c0-2.48.67-4.39,2.01-5.71,1.34-1.32,3.24-1.98,5.69-1.98s4.33.66,5.65,1.97c1.32,1.32,1.97,3.25,1.97,5.8v33.01h-4.36v-33.09c0-1.36-.27-2.37-.82-3.05-.55-.68-1.36-1.02-2.44-1.02s-1.9.33-2.47,1c-.57.67-.86,1.67-.86,2.99v2.23h-4.36v-2.16Z"/>
      <path class="cls-1" d="m564.41,690.13c-1.81,0-3.16.56-4.04,1.69-.88,1.13-1.32,2.83-1.32,5.12v8.23c0,2.19.22,4.17.66,5.94.44,1.77,1,3.27,1.67,4.5h-4.51c-.7-1.16-1.24-2.63-1.62-4.4-.38-1.77-.56-3.76-.56-5.97v-8.31c0-3.56.81-6.24,2.44-8.04,1.63-1.8,4.06-2.7,7.29-2.7s5.69.89,7.3,2.68c1.62,1.79,2.43,4.44,2.43,7.95v8.28c0,2.27-.22,4.28-.67,6.03-.45,1.75-1.19,3.23-2.22,4.46h-3.82v-.27c.7-1.21,1.27-2.67,1.7-4.39.43-1.72.65-3.64.65-5.78v-8.23c0-2.29-.44-3.99-1.32-5.12s-2.23-1.69-4.04-1.69Zm6.96,21.98h12.94v3.5h-16.86l3.92-3.5Zm9.24-25.15h4.34v28.65h-4.34v-28.65Z"/>
      <path class="cls-1" d="m602.94,711.11c1.5.29,2.59.93,3.26,1.9.67.97,1,2.2,1,3.69v.61c0,2.56-.77,4.49-2.3,5.78-1.54,1.29-3.89,1.94-7.06,1.94s-5.5-.65-7.05-1.94c-1.54-1.29-2.32-3.23-2.32-5.81v-.76h4.24v.56c0,.9.18,1.65.54,2.27.36.61.91,1.07,1.67,1.38.75.31,1.72.47,2.92.47s2.13-.16,2.87-.47c.74-.31,1.27-.77,1.62-1.38.34-.61.51-1.36.51-2.24v-.64c0-1.19-.31-2.1-.92-2.71-.61-.61-1.59-.92-2.93-.92h-9.51l-.54-3.65h10.29c1.24,0,2.15-.26,2.73-.77.58-.51.87-1.28.87-2.29v-.2c0-.74-.19-1.36-.58-1.88s-1.03-.95-1.94-1.31c-.91-.36-2.15-.69-3.74-.98-1.93-.36-3.47-.85-4.62-1.47-1.15-.62-1.98-1.43-2.48-2.44-.5-1-.75-2.23-.75-3.69v-.29c0-2.52.76-4.42,2.29-5.72,1.53-1.3,3.84-1.95,6.95-1.95s5.33.65,6.81,1.95c1.49,1.3,2.23,3.21,2.23,5.75v1.08h-4.24v-1c0-.87-.17-1.59-.5-2.18-.33-.59-.85-1.03-1.56-1.34-.7-.3-1.62-.45-2.75-.45s-2.08.15-2.79.45c-.72.3-1.25.74-1.59,1.31s-.51,1.28-.51,2.13v.2c0,.77.16,1.43.49,1.99.33.56.93,1.04,1.83,1.45.89.41,2.17.77,3.84,1.08,2.06.39,3.66.89,4.82,1.48,1.15.6,1.96,1.33,2.44,2.21.47.87.71,1.93.71,3.17v.27c0,1.39-.33,2.55-1,3.47s-1.76,1.52-3.26,1.8v.1Z"/>
      <path class="cls-1" d="m610.56,704.32c0-2.7.66-4.74,1.97-6.14,1.31-1.4,3.25-2.1,5.82-2.1s4.53.7,5.83,2.1c1.31,1.4,1.96,3.44,1.96,6.14v3.58c0,2.7-.65,4.75-1.96,6.15-1.31,1.41-3.25,2.11-5.83,2.11s-4.51-.7-5.82-2.11c-1.32-1.41-1.97-3.46-1.97-6.15v-3.58Zm11.35-.02c0-1.47-.3-2.58-.89-3.33-.6-.75-1.48-1.13-2.66-1.13s-2.06.38-2.66,1.13-.89,1.86-.89,3.33v3.63c0,1.47.3,2.58.89,3.33s1.48,1.13,2.66,1.13,2.06-.38,2.66-1.13c.6-.75.89-1.86.89-3.33v-3.63Z"/>
    </g>
    <g>
      <path class="cls-1" d="m136.04,577.22v-4.09l9.36-10.81c1.98-2.32,3.55-4.32,4.71-6.02,1.16-1.7,1.99-3.31,2.49-4.85.5-1.53.76-3.16.76-4.87,0-1.42-.21-2.66-.62-3.73-.41-1.06-1.04-1.9-1.88-2.49-.84-.6-1.91-.9-3.22-.9-1.68,0-2.97.39-3.87,1.18-.9.78-1.5,1.8-1.82,3.05-.32,1.25-.48,2.62-.48,4.12-.9,0-1.71-.1-2.44-.31-.73-.21-1.31-.58-1.74-1.12-.43-.54-.64-1.28-.64-2.21,0-1.46.41-2.75,1.23-3.87.82-1.12,2.05-2.01,3.7-2.66,1.64-.65,3.66-.98,6.05-.98s4.38.38,6.08,1.15c1.7.77,3.01,1.85,3.92,3.25.92,1.4,1.37,3.05,1.37,4.96,0,1.05-.14,2.07-.42,3.08-.28,1.01-.68,2.02-1.2,3.03-.52,1.01-1.16,2.04-1.9,3.11-.75,1.06-1.61,2.18-2.58,3.33-.97,1.16-2.05,2.39-3.25,3.7l-9.47,10.48h12.94c1.68,0,2.82-.43,3.42-1.29.6-.86,1.03-1.83,1.29-2.91l.22-1.01h2.35l-.28,9.69h-24.09Z"/>
      <path class="cls-1" d="m178.84,577.78c-3.06,0-5.57-.86-7.51-2.58-1.94-1.72-3.37-4.13-4.29-7.23-.92-3.1-1.37-6.72-1.37-10.87s.46-7.75,1.37-10.81c.92-3.06,2.34-5.43,4.29-7.12,1.94-1.68,4.46-2.52,7.56-2.52,2.91,0,5.34.84,7.28,2.52,1.94,1.68,3.39,4.06,4.34,7.14.95,3.08,1.43,6.69,1.43,10.84s-.49,7.76-1.46,10.84c-.97,3.08-2.42,5.48-4.34,7.2-1.92,1.72-4.36,2.58-7.31,2.58Zm0-3.02c2.73,0,4.62-1.55,5.69-4.65,1.06-3.1,1.6-7.41,1.6-12.94s-.53-9.87-1.6-12.91c-1.06-3.04-2.94-4.57-5.63-4.57s-4.64,1.52-5.74,4.57c-1.1,3.04-1.65,7.35-1.65,12.91s.54,9.84,1.62,12.94c1.08,3.1,2.99,4.65,5.71,4.65Z"/>
      <path class="cls-1" d="m195.87,577.22v-4.09l9.36-10.81c1.98-2.32,3.55-4.32,4.71-6.02,1.16-1.7,1.99-3.31,2.49-4.85.5-1.53.76-3.16.76-4.87,0-1.42-.21-2.66-.62-3.73-.41-1.06-1.04-1.9-1.88-2.49-.84-.6-1.91-.9-3.22-.9-1.68,0-2.97.39-3.87,1.18-.9.78-1.5,1.8-1.82,3.05-.32,1.25-.48,2.62-.48,4.12-.9,0-1.71-.1-2.44-.31-.73-.21-1.31-.58-1.74-1.12-.43-.54-.64-1.28-.64-2.21,0-1.46.41-2.75,1.23-3.87.82-1.12,2.05-2.01,3.7-2.66,1.64-.65,3.66-.98,6.05-.98s4.38.38,6.08,1.15c1.7.77,3.01,1.85,3.92,3.25.92,1.4,1.37,3.05,1.37,4.96,0,1.05-.14,2.07-.42,3.08-.28,1.01-.68,2.02-1.2,3.03-.52,1.01-1.16,2.04-1.9,3.11-.75,1.06-1.61,2.18-2.58,3.33-.97,1.16-2.05,2.39-3.25,3.7l-9.47,10.48h12.94c1.68,0,2.82-.43,3.42-1.29.6-.86,1.03-1.83,1.29-2.91l.22-1.01h2.35l-.28,9.69h-24.09Z"/>
      <path class="cls-1" d="m239.4,577.78c-2.46,0-4.68-.7-6.64-2.1-1.96-1.4-3.51-3.62-4.65-6.67-1.14-3.04-1.71-7.03-1.71-11.96,0-2.65.3-5.2.9-7.65.6-2.45,1.49-4.63,2.69-6.56,1.19-1.92,2.72-3.44,4.57-4.54,1.85-1.1,4.01-1.65,6.47-1.65,2.09,0,3.82.28,5.18.84,1.36.56,2.38,1.29,3.05,2.19s1.01,1.85,1.01,2.86-.36,1.87-1.09,2.47c-.73.6-1.8.9-3.22.9,0-1.23-.16-2.34-.48-3.33-.32-.99-.84-1.77-1.57-2.35-.73-.58-1.69-.87-2.89-.87-1.87,0-3.44.63-4.71,1.88-1.27,1.25-2.24,3.09-2.91,5.52-.67,2.43-1.08,5.45-1.23,9.08.93-.75,2.04-1.42,3.33-2.02,1.29-.6,2.85-.9,4.68-.9,3.44,0,6.17,1.02,8.21,3.05,2.04,2.04,3.05,4.85,3.05,8.43,0,2.61-.48,4.93-1.43,6.95-.95,2.02-2.33,3.59-4.12,4.73-1.79,1.14-3.96,1.71-6.5,1.71Zm.17-3.08c1.98,0,3.5-.77,4.57-2.33,1.06-1.55,1.6-4.02,1.6-7.42,0-3.21-.57-5.55-1.71-7-1.14-1.46-2.79-2.19-4.96-2.19-.97,0-1.89.16-2.75.48-.86.32-1.64.73-2.35,1.23-.71.5-1.33,1.02-1.85,1.54.07,5.6.77,9.62,2.1,12.05,1.33,2.43,3.11,3.64,5.35,3.64Z"/>
      <path class="cls-1" d="m276.84,577.55c-.69,0-1.39-.24-2.12-.71-.72-.47-1.39-1.13-2.01-1.98-.62-.85-1.11-1.84-1.49-2.98-.38-1.14-.57-2.38-.57-3.72,0-2.1.46-3.92,1.38-5.48.92-1.55,2.18-2.77,3.77-3.63,1.59-.87,3.38-1.3,5.37-1.3s3.68.39,5.29,1.17c1.61.78,2.9,1.88,3.88,3.31.98,1.43,1.46,3.14,1.46,5.13,0,1.23-.25,2.46-.76,3.69-.51,1.23-1.28,2.31-2.33,3.25h26.25v2.93h-31.79l-.54-.92c.51-.43,1.09-1.03,1.76-1.79.67-.76,1.25-1.71,1.74-2.85.49-1.14.73-2.49.73-4.04,0-1.84-.58-3.41-1.74-4.69-1.16-1.28-2.69-1.93-4.61-1.93-1.41,0-2.62.33-3.63.98-1.01.65-1.79,1.52-2.33,2.6-.54,1.08-.81,2.28-.81,3.58,0,1.38.24,2.59.73,3.63.49,1.05,1.1,1.96,1.84,2.74.74.78,1.49,1.42,2.25,1.93-.22.36-.44.63-.68.81-.24.18-.59.27-1.06.27Zm34.33,12.04c-2.31,0-4.3-.52-5.97-1.57-1.66-1.05-3.02-2.47-4.07-4.26-1.05-1.79-1.83-3.82-2.33-6.1-.51-2.28-.76-4.63-.76-7.05,0-5.24.96-9.62,2.88-13.13,1.92-3.51,4.55-6.16,7.89-7.95,3.34-1.79,7.13-2.69,11.36-2.69,2.93,0,5.62.45,8.08,1.36,2.46.9,4.42,2.26,5.89,4.07,1.46,1.81,2.2,4.07,2.2,6.78,0,2.57-.69,4.63-2.06,6.18-1.37,1.56-3.09,2.68-5.15,3.36v.16c2.57.54,4.67,1.69,6.32,3.44,1.65,1.75,2.47,4.04,2.47,6.86,0,2.31-.43,4.25-1.3,5.8-.87,1.55-2.01,2.73-3.42,3.53-1.41.79-2.91,1.19-4.5,1.19-1.92,0-3.37-.28-4.37-.84-1-.56-1.49-1.27-1.49-2.14v-.35c0-.13.02-.26.05-.41.4.14.89.26,1.46.35.58.09,1.25.14,2.01.14,1.45,0,2.63-.31,3.55-.92.92-.62,1.6-1.48,2.03-2.6.43-1.12.65-2.44.65-3.96,0-2.35-.7-4.35-2.09-5.99-1.39-1.65-3.48-2.49-6.27-2.52v-2.77c1.92,0,3.53-.72,4.83-2.17,1.3-1.45,1.95-3.33,1.95-5.64,0-2.82-.96-5.12-2.87-6.89-1.92-1.77-4.81-2.66-8.68-2.66-2.42,0-4.73.42-6.92,1.25-2.19.83-4.13,2.1-5.83,3.8-1.7,1.7-3.03,3.83-3.99,6.4-.96,2.57-1.44,5.61-1.44,9.11,0,2.93.33,5.54.98,7.84s1.66,4.1,3.04,5.42c1.37,1.32,3.13,1.98,5.26,1.98,1.08,0,1.88-.32,2.39-.95.51-.63.76-1.67.76-3.12v-27.39h5.15v27.07c0,1.81-.3,3.31-.9,4.5s-1.46,2.07-2.6,2.63c-1.14.56-2.54.84-4.2.84Z"/>
      <path class="cls-1" d="m353.49,587.15c-2.86,0-5.27-.72-7.24-2.17-1.97-1.45-3.47-3.45-4.5-6.02-1.03-2.57-1.55-5.53-1.55-8.9,0-2.46.24-4.85.73-7.16.49-2.31,1.13-4.45,1.93-6.4s1.65-3.67,2.58-5.15c.92-1.48,1.83-2.63,2.74-3.44.9-.81,1.7-1.22,2.39-1.22.61,0,1.05.22,1.3.65-1.48,1.56-2.72,3.27-3.72,5.15-.99,1.88-1.78,3.8-2.36,5.75-.58,1.95-1,3.86-1.25,5.72-.25,1.86-.38,3.54-.38,5.02,0,3.11.44,5.74,1.33,7.89.89,2.15,2.16,3.79,3.82,4.91,1.66,1.12,3.65,1.68,5.97,1.68.83,0,1.73-.07,2.69-.22.96-.15,1.89-.4,2.79-.76v.16c0,.83-.3,1.59-.9,2.28-.6.69-1.44,1.23-2.52,1.63-1.08.4-2.37.6-3.85.6Z"/>
      <path class="cls-1" d="m357.07,577.55c-.69,0-1.39-.24-2.12-.71-.72-.47-1.39-1.13-2.01-1.98-.62-.85-1.11-1.84-1.49-2.98-.38-1.14-.57-2.38-.57-3.72,0-2.1.46-3.92,1.38-5.48.92-1.55,2.18-2.77,3.77-3.63,1.59-.87,3.38-1.3,5.37-1.3s3.68.39,5.29,1.17c1.61.78,2.9,1.88,3.88,3.31.98,1.43,1.46,3.14,1.46,5.13,0,1.23-.25,2.46-.76,3.69-.51,1.23-1.28,2.31-2.33,3.25h20.83v2.93h-26.36l-.54-.92c.51-.43,1.09-1.03,1.76-1.79.67-.76,1.25-1.71,1.74-2.85.49-1.14.73-2.49.73-4.04,0-1.84-.58-3.41-1.74-4.69-1.16-1.28-2.69-1.93-4.61-1.93-1.41,0-2.62.33-3.63.98-1.01.65-1.79,1.52-2.33,2.6-.54,1.08-.81,2.28-.81,3.58,0,1.38.24,2.59.73,3.63.49,1.05,1.1,1.96,1.84,2.74.74.78,1.49,1.42,2.25,1.93-.22.36-.44.63-.68.81-.24.18-.59.27-1.06.27Zm31.3-.33v-30.05h5.15v30.05h-5.15Z"/>
      <path class="cls-1" d="m401.33,577.22v-33.58c0-2.28-.24-4.09-.71-5.42-.47-1.34-1.15-2.3-2.03-2.87-.89-.58-1.93-.87-3.12-.87-1.55,0-2.78.51-3.69,1.52-.9,1.01-1.36,2.48-1.36,4.39,0,.47.05.99.14,1.57.09.58.21,1.05.35,1.41-.18.07-.39.13-.62.16-.23.04-.44.05-.62.05-.69,0-1.26-.33-1.71-.98s-.68-1.45-.68-2.39c0-1.81.43-3.36,1.28-4.66s1.97-2.31,3.36-3.01c1.39-.71,2.92-1.06,4.58-1.06,2.17,0,3.99.48,5.45,1.44,1.46.96,2.58,2.31,3.34,4.07.76,1.75,1.14,3.84,1.14,6.26v33.96h-5.1Z"/>
      <path class="cls-1" d="m445.48,546.85c4.99,0,9.03.8,12.12,2.39,3.09,1.59,5.35,3.76,6.78,6.51,1.43,2.75,2.14,5.86,2.14,9.33,0,2.13-.42,4.15-1.25,6.05s-2.04,3.44-3.63,4.64c-1.59,1.19-3.56,1.79-5.91,1.79-2.06,0-3.82-.49-5.26-1.46-1.45-.98-2.55-2.35-3.31-4.12-.76-1.77-1.14-3.83-1.14-6.18s.43-4.69,1.3-6.7c.87-2.01,1.96-3.81,3.28-5.4,1.32-1.59,2.67-3.02,4.04-4.29l2.17,1.84c-1.34,1.19-2.6,2.56-3.77,4.1-1.18,1.54-2.12,3.19-2.82,4.96-.71,1.77-1.06,3.65-1.06,5.64,0,2.78.56,4.87,1.68,6.26,1.12,1.39,2.57,2.09,4.34,2.09s3.14-.7,4.31-2.09c1.17-1.39,1.76-3.77,1.76-7.13,0-1.95-.26-3.82-.79-5.61-.53-1.79-1.38-3.39-2.58-4.8-1.19-1.41-2.82-2.52-4.88-3.34-2.06-.81-4.63-1.22-7.7-1.22s-5.61.33-7.95.98-4.3,1.64-5.91,2.96c-1.61,1.32-2.83,3-3.66,5.04-.83,2.04-1.25,4.46-1.25,7.24,0,1.59.25,2.98.76,4.18.51,1.19,1.21,2.12,2.12,2.79.9.67,1.95,1,3.15,1,1.12,0,2.15-.3,3.09-.9s1.7-1.55,2.28-2.87c.58-1.32.87-3.05.87-5.18,0-2.75-.46-5.28-1.38-7.59-.92-2.31-2.3-4.17-4.12-5.56-1.83-1.39-4.09-2.09-6.81-2.09-1.77,0-3.39.33-4.86.98-1.46.65-2.73,1.57-3.8,2.77s-1.9,2.6-2.5,4.23c-.6,1.63-.89,3.42-.89,5.37,0,2.13.33,4.02.98,5.67.65,1.65,1.54,3.08,2.66,4.31,1.12,1.23,2.39,2.3,3.8,3.2-.22.29-.51.52-.87.68-.36.16-.74.24-1.14.24-.87,0-1.8-.33-2.79-.98-1-.65-1.94-1.58-2.82-2.79-.89-1.21-1.61-2.7-2.17-4.48-.56-1.77-.84-3.76-.84-5.97,0-2.53.4-4.81,1.19-6.83.79-2.02,1.91-3.76,3.34-5.21,1.43-1.45,3.08-2.55,4.96-3.31,1.88-.76,3.91-1.14,6.08-1.14,2.5,0,4.78.47,6.86,1.41,2.08.94,3.88,2.24,5.4,3.91,1.52,1.66,2.69,3.54,3.53,5.64.83,2.1,1.25,4.32,1.25,6.67s-.42,4.47-1.25,6.46c-.83,1.99-2.04,3.59-3.63,4.8-1.59,1.21-3.54,1.82-5.86,1.82-2.1,0-3.87-.51-5.32-1.52-1.45-1.01-2.55-2.4-3.31-4.15-.76-1.75-1.14-3.73-1.14-5.94,0-3.15.53-5.91,1.6-8.3,1.07-2.39,2.58-4.38,4.53-5.99,1.95-1.61,4.28-2.81,7-3.61,2.71-.79,5.71-1.19,9-1.19Zm11.82,3.85l-2.44-1.74c.83-.9,1.56-1.87,2.2-2.9.63-1.03.95-2.32.95-3.88s-.44-2.66-1.33-3.53c-.89-.87-2.12-1.3-3.72-1.3-.51,0-.99.03-1.44.08-.45.05-.93.17-1.44.35-.04-.18-.05-.34-.05-.49v-.33c0-.58.2-1.13.6-1.65.4-.52.97-.95,1.71-1.27.74-.33,1.64-.49,2.69-.49,1.55,0,2.84.33,3.85,1,1.01.67,1.78,1.53,2.31,2.58.52,1.05.79,2.19.79,3.42,0,1.52-.23,2.88-.68,4.07-.45,1.19-1.03,2.27-1.74,3.23-.71.96-1.46,1.91-2.25,2.85Z"/>
      <path class="cls-1" d="m500.59,569.95h5.97v7.27h-21.37v-7.27h6.67v-20.56l-6.02,1.79v-7.49l13.89-4.88h.87v31.13Z"/>
      <path class="cls-1" d="m524.24,569.95h5.97v7.27h-21.37v-7.27h6.67v-20.56l-6.02,1.79v-7.49l13.89-4.88h.87v31.13Z"/>
      <path class="cls-1" d="m540.95,569.87c.9.89,1.36,2.05,1.36,3.5,0,1.19-.25,2.49-.76,3.88-.51,1.39-1.46,3.59-2.88,6.59h-4.61l1.52-6.51c-.94-.25-1.68-.75-2.22-1.49-.54-.74-.81-1.64-.81-2.69,0-1.37.45-2.49,1.36-3.34.9-.85,2.08-1.27,3.53-1.27s2.62.44,3.53,1.33Z"/>
      <path class="cls-1" d="m561.07,569.95h5.97v7.27h-21.37v-7.27h6.67v-20.56l-6.02,1.79v-7.49l13.89-4.88h.87v31.13Z"/>
      <path class="cls-1" d="m578.54,569.63h22.62v7.59h-31.46v-9.06c0-4.12,1.36-7.26,4.1-9.41,2.73-2.15,6.64-3.23,11.74-3.23,2.06,0,3.72-.45,4.96-1.36,1.25-.9,1.87-2.06,1.87-3.47s-.57-2.46-1.71-3.25c-1.14-.79-2.7-1.19-4.69-1.19-2.13,0-3.79.4-4.96,1.19-1.18.8-1.82,1.95-1.93,3.47h-8.9c.07-3.8,1.51-6.77,4.31-8.92,2.8-2.15,6.63-3.23,11.47-3.23,3.11,0,5.82.48,8.14,1.44,2.31.96,4.09,2.33,5.34,4.12,1.25,1.79,1.87,3.88,1.87,6.26,0,8.14-5.21,12.2-15.62,12.2-2.28,0-4.04.44-5.29,1.33-1.25.89-1.87,2.16-1.87,3.82v1.68Z"/>
      <path class="cls-1" d="m155,663.09c-3.7,0-6.91-.92-9.65-2.77-2.73-1.85-4.84-4.57-6.32-8.15-1.48-3.59-2.22-7.94-2.22-13.06,0-3.7.46-7.04,1.37-10.03.91-2.99,2.09-5.55,3.54-7.68s2.96-3.77,4.52-4.91c1.56-1.14,2.97-1.71,4.23-1.71.63,0,1.21.11,1.75.34.54.23,1.01.6,1.41,1.11-2.22,1.65-4.23,3.53-6.02,5.63-1.79,2.11-3.2,4.58-4.23,7.43-1.02,2.85-1.54,6.23-1.54,10.16s.46,7.01,1.37,9.77c.91,2.76,2.29,4.89,4.14,6.4,1.85,1.51,4.2,2.26,7.04,2.26,2.28,0,4.21-.43,5.8-1.28,1.59-.85,2.82-2.35,3.67-4.48.85-2.13,1.28-5.05,1.28-8.75v-5.72c0-5.18,1.05-9.45,3.16-12.8,2.1-3.36,4.94-5.88,8.49-7.55,3.56-1.68,7.52-2.52,11.91-2.52,4.1,0,7.8.68,11.1,2.05,3.3,1.37,6.1,3.29,8.41,5.76,2.3,2.48,4.08,5.42,5.33,8.83,1.25,3.41,1.88,7.14,1.88,11.18,0,3.64-.65,7.01-1.96,10.12-1.31,3.1-3.23,5.61-5.76,7.51-2.53,1.91-5.62,2.86-9.26,2.86-3.3,0-6.09-.75-8.37-2.26-2.28-1.51-4-3.6-5.16-6.27-1.17-2.67-1.75-5.8-1.75-9.39s.57-7.17,1.71-10.41c1.14-3.24,2.74-6.26,4.82-9.05,2.08-2.79,4.54-5.38,7.38-7.77l2.82,3.33c-2.5,2.05-4.64,4.38-6.4,7-1.76,2.62-3.1,5.39-4.01,8.32-.91,2.93-1.37,5.93-1.37,9.01,0,3.98.88,7.04,2.65,9.18,1.76,2.13,4.04,3.2,6.83,3.2,1.76,0,3.37-.45,4.82-1.37,1.45-.91,2.6-2.48,3.46-4.69s1.28-5.26,1.28-9.13c0-2.84-.37-5.65-1.11-8.41-.74-2.76-1.86-5.28-3.37-7.55-1.51-2.28-3.43-4.1-5.76-5.46-2.33-1.37-5.09-2.05-8.28-2.05-2.9,0-5.48.63-7.72,1.88-2.25,1.25-4.03,3.24-5.33,5.98-1.31,2.73-1.96,6.35-1.96,10.84v4.1c0,4.55-.7,8.39-2.09,11.52-1.4,3.13-3.46,5.49-6.19,7.08-2.73,1.59-6.18,2.39-10.33,2.39Z"/>
      <path class="cls-1" d="m234.13,663.09c-1.25,0-2.66-.57-4.23-1.71-1.57-1.14-3.07-2.77-4.52-4.91-1.45-2.13-2.63-4.69-3.54-7.68-.91-2.99-1.37-6.33-1.37-10.03,0-4.27.78-8.22,2.35-11.86,1.56-3.64,3.83-6.57,6.79-8.79,2.96-2.22,6.52-3.33,10.67-3.33,3.02,0,5.65.55,7.9,1.66,2.25,1.11,4.13,2.63,5.63,4.57,1.51,1.94,2.6,4.18,3.29,6.74l-3.59-.43c1.48-3.41,3.13-6.02,4.95-7.81,1.82-1.79,3.77-3.03,5.85-3.71,2.08-.68,4.17-1.02,6.27-1.02,2.73,0,5.32.53,7.77,1.58,2.45,1.05,4.61,2.63,6.49,4.74,1.88,2.11,3.36,4.72,4.44,7.85,1.08,3.13,1.62,6.8,1.62,11.01,0,3.76-.47,7.08-1.41,9.99-.94,2.9-2.16,5.35-3.67,7.34-1.51,1.99-3.13,3.49-4.87,4.48-1.74,1-3.4,1.49-4.99,1.49-.74,0-1.42-.07-2.05-.21-.63-.14-1.08-.3-1.37-.47,2.16-1.59,3.98-3.58,5.46-5.98,1.48-2.39,2.6-5.02,3.37-7.9.77-2.87,1.15-5.73,1.15-8.58,0-3.47-.34-6.47-1.02-9.01-.68-2.53-1.64-4.62-2.86-6.27-1.22-1.65-2.62-2.89-4.18-3.71-1.57-.82-3.2-1.24-4.91-1.24-3.47,0-6.22,1.19-8.24,3.58-2.02,2.39-3.03,5.32-3.03,8.79v30.3h-8.11v-30.22c0-2.56-.44-4.77-1.32-6.62-.88-1.85-2.12-3.29-3.71-4.31-1.59-1.02-3.47-1.54-5.63-1.54-3.07,0-5.65.88-7.73,2.65-2.08,1.76-3.64,4.05-4.69,6.87-1.05,2.82-1.58,5.82-1.58,9.01,0,3.93.51,7.3,1.54,10.11s2.42,5.28,4.18,7.38c1.76,2.11,3.78,4.01,6.06,5.72-.4.46-.87.81-1.41,1.07-.54.26-1.12.38-1.75.38Z"/>
      <path class="cls-1" d="m300.63,662.58v-52.84c0-3.58-.37-6.43-1.11-8.54-.74-2.1-1.81-3.61-3.2-4.52-1.4-.91-3.03-1.37-4.91-1.37-2.45,0-4.38.8-5.8,2.39-1.42,1.59-2.13,3.9-2.13,6.91,0,.74.07,1.57.21,2.48.14.91.33,1.65.55,2.22-.28.11-.61.2-.98.26-.37.06-.7.09-.98.09-1.08,0-1.98-.51-2.69-1.54-.71-1.02-1.07-2.27-1.07-3.76,0-2.85.67-5.29,2.01-7.34,1.34-2.05,3.1-3.63,5.29-4.74,2.19-1.11,4.6-1.66,7.21-1.66,3.41,0,6.27.75,8.58,2.26,2.3,1.51,4.05,3.64,5.25,6.4,1.19,2.76,1.79,6.05,1.79,9.86v53.43h-8.02Z"/>
      <path class="cls-1" d="m315.65,675.72v-3.58c2.79-.91,4.84-2.01,6.15-3.29,1.31-1.28,1.96-2.75,1.96-4.4,0-.85-.31-1.51-.94-1.96-.63-.45-1.35-.88-2.18-1.28-.83-.4-1.55-.94-2.18-1.62-.63-.68-.94-1.68-.94-2.99,0-1.65.53-2.9,1.58-3.76,1.05-.85,2.38-1.28,3.97-1.28,1.76,0,3.3.67,4.61,2.01,1.31,1.34,1.96,3.37,1.96,6.1,0,2.16-.46,4.3-1.37,6.4-.91,2.1-2.39,3.98-4.44,5.63-2.05,1.65-4.78,2.99-8.19,4.01Z"/>
      <path class="cls-1" d="m353.8,663.09c-3.02,0-5.65-.63-7.9-1.88-2.25-1.25-4.11-2.92-5.59-4.99-1.48-2.08-2.59-4.42-3.33-7.04-.74-2.62-1.11-5.29-1.11-8.02,0-4.38.71-8.22,2.13-11.52,1.42-3.3,3.36-6.05,5.8-8.24,2.45-2.19,5.18-3.84,8.19-4.95,3.02-1.11,6.15-1.66,9.39-1.66,2.79,0,5.53.38,8.24,1.15,2.7.77,5.21,2.01,7.51,3.71,2.3,1.71,4.23,3.98,5.76,6.83l1.37,5.29v30.81h-7.26v-24.92c0-5.8-1.54-10.21-4.61-13.23-3.07-3.02-7.08-4.52-12.04-4.52-3.3,0-6.46.78-9.47,2.35-3.02,1.57-5.49,3.93-7.43,7.08-1.94,3.16-2.9,7.13-2.9,11.91,0,3.81.61,6.96,1.83,9.43,1.22,2.48,2.75,4.31,4.57,5.51,1.82,1.19,3.58,1.79,5.29,1.79,1.82,0,3.34-.4,4.57-1.19,1.22-.8,2.15-1.88,2.77-3.24.63-1.37.94-2.87.94-4.52,0-2.85-.8-5.01-2.39-6.49-1.59-1.48-3.53-2.22-5.8-2.22-2.56,0-4.82.94-6.79,2.82-1.96,1.88-3.57,4.04-4.82,6.49l-.77-5.21c1.08-1.82,2.33-3.43,3.76-4.82,1.42-1.39,3.03-2.49,4.82-3.29,1.79-.8,3.74-1.19,5.85-1.19,2.79,0,5.22.61,7.3,1.83,2.08,1.22,3.7,2.87,4.87,4.95,1.17,2.08,1.75,4.45,1.75,7.13s-.57,5.08-1.71,7.21c-1.14,2.13-2.79,3.81-4.95,5.04-2.16,1.22-4.78,1.84-7.85,1.84Zm47.72-48.31c3.7,0,7.1.74,10.2,2.22,3.1,1.48,5.82,3.53,8.15,6.15,2.33,2.62,4.14,5.58,5.42,8.88,1.28,3.3,1.92,6.8,1.92,10.5s-.66,7.03-1.96,10.16c-1.31,3.13-3.21,5.65-5.72,7.55-2.5,1.91-5.58,2.86-9.22,2.86-3.3,0-6.09-.8-8.37-2.39-2.28-1.59-4.01-3.81-5.21-6.66-1.19-2.85-1.79-6.09-1.79-9.73,0-4.84.82-9.09,2.48-12.76,1.65-3.67,3.87-6.76,6.66-9.26,2.79-2.5,5.9-4.38,9.35-5.63,3.44-1.25,6.98-1.88,10.63-1.88,3.36,0,6.56.54,9.6,1.62,3.04,1.08,5.76,2.7,8.15,4.87,2.39,2.16,4.28,4.87,5.68,8.11,1.39,3.24,2.09,7.06,2.09,11.44,0,3.64-.47,6.86-1.41,9.65-.94,2.79-2.18,5.14-3.71,7.04-1.54,1.91-3.17,3.34-4.91,4.31-1.74.97-3.4,1.45-4.99,1.45-.74,0-1.41-.07-2.01-.21-.6-.14-1.04-.3-1.32-.47,3.13-2.28,5.56-5.41,7.3-9.39,1.74-3.98,2.6-8.08,2.6-12.29,0-4.72-.91-8.63-2.73-11.74-1.82-3.1-4.14-5.42-6.96-6.96-2.82-1.54-5.79-2.3-8.92-2.3-2.85,0-5.61.51-8.28,1.54-2.68,1.02-5.09,2.56-7.26,4.61-2.16,2.05-3.87,4.64-5.12,7.77-1.25,3.13-1.88,6.8-1.88,11.01,0,2.68.4,5.01,1.2,7,.8,1.99,1.91,3.51,3.33,4.57,1.42,1.05,3.07,1.58,4.95,1.58,1.76,0,3.38-.47,4.87-1.41,1.48-.94,2.67-2.45,3.58-4.52.91-2.08,1.37-4.79,1.37-8.15,0-4.32-.71-8.31-2.13-11.95-1.42-3.64-3.5-6.56-6.23-8.75-2.73-2.19-6.09-3.29-10.07-3.29-3.58,0-6.54.81-8.88,2.43-2.33,1.62-4.05,3.74-5.17,6.36-1.11,2.62-1.66,5.49-1.66,8.62v25.27h-7.26v-24.24l3.33-9.99c1.54-3.87,4.08-7.1,7.64-9.69,3.56-2.59,7.78-3.88,12.68-3.88Z"/>
      <path class="cls-1" d="m472.79,663.09c-2.85,0-5.33-.47-7.47-1.41-2.13-.94-3.91-2.15-5.33-3.63-1.42-1.48-2.49-3.03-3.2-4.65-.71-1.62-1.07-3.14-1.07-4.57,0-.91.24-1.69.73-2.35.48-.65,1.18-.98,2.09-.98.45,2.16,1.22,4.2,2.3,6.1,1.08,1.91,2.52,3.44,4.31,4.61,1.79,1.17,3.94,1.75,6.44,1.75,3.13,0,5.6-.94,7.43-2.82s3.12-4.28,3.88-7.21c.77-2.93,1.15-5.93,1.15-9.01,0-2.27-.21-4.54-.64-6.79-.43-2.25-1.12-4.3-2.09-6.15-.97-1.85-2.25-3.33-3.84-4.44-1.59-1.11-3.56-1.66-5.89-1.66-2.5,0-4.65.58-6.44,1.75-1.79,1.17-3.23,2.7-4.31,4.61-1.08,1.91-1.85,3.94-2.3,6.1-.91,0-1.61-.33-2.09-.98-.48-.65-.73-1.41-.73-2.26,0-1.42.36-2.96,1.07-4.61.71-1.65,1.78-3.21,3.2-4.69,1.42-1.48,3.2-2.69,5.33-3.63,2.13-.94,4.62-1.41,7.47-1.41,3.41,0,6.36.7,8.83,2.09,2.48,1.4,4.48,3.26,6.02,5.59,1.54,2.33,2.67,4.92,3.42,7.77.74,2.85,1.11,5.75,1.11,8.71s-.37,5.86-1.11,8.71c-.74,2.85-1.88,5.44-3.42,7.77-1.54,2.33-3.54,4.2-6.02,5.59-2.48,1.4-5.42,2.09-8.83,2.09Z"/>
      <path class="cls-1" d="m522.39,663.09c-5.18,0-9.65-1.21-13.4-3.63-3.76-2.42-6.66-5.69-8.71-9.82-2.05-4.13-3.07-8.75-3.07-13.87,0-4.15.74-7.81,2.22-10.97,1.48-3.16,3.57-5.62,6.27-7.38,2.7-1.76,5.93-2.65,9.69-2.65,2.5,0,4.64.33,6.4.98,1.76.65,3.47,1.64,5.12,2.94l-3.07,4.95c-1.2-1.31-2.52-2.26-3.97-2.86-1.45-.6-3.03-.9-4.74-.9-2.96,0-5.39.71-7.3,2.13-1.91,1.42-3.32,3.33-4.22,5.72-.91,2.39-1.37,5.04-1.37,7.94,0,4.1.78,7.83,2.35,11.18,1.56,3.36,3.87,6.05,6.91,8.07,3.04,2.02,6.76,3.03,11.14,3.03,3.7,0,6.84-.71,9.43-2.13,2.59-1.42,4.69-3.31,6.32-5.68,1.62-2.36,2.82-4.92,3.58-7.68.77-2.76,1.15-5.45,1.15-8.07,0-3.47-.5-6.26-1.49-8.37-1-2.1-2.29-3.66-3.88-4.65-1.59-1-3.3-1.49-5.12-1.49s-3.43.48-4.99,1.45c-1.57.97-2.83,2.43-3.8,4.4-.97,1.96-1.45,4.45-1.45,7.47,0,3.64.57,6.99,1.71,10.03,1.14,3.04,2.75,5.66,4.82,7.85,2.08,2.19,4.55,3.88,7.43,5.08,2.87,1.19,6.07,1.79,9.6,1.79s6.49-.77,9.39-2.3c2.9-1.54,5.24-3.87,7-7,1.76-3.13,2.65-7.08,2.65-11.86s-.85-8.93-2.56-12.46c-1.71-3.53-3.96-6.46-6.74-8.79.46-.28.97-.48,1.54-.6.57-.11,1.08-.17,1.54-.17,1.82,0,3.6.53,5.33,1.58,1.73,1.05,3.31,2.56,4.74,4.52,1.42,1.96,2.55,4.3,3.37,7,.82,2.7,1.24,5.73,1.24,9.09,0,5.52-1.14,10.23-3.42,14.13-2.28,3.9-5.36,6.87-9.26,8.92-3.9,2.05-8.27,3.07-13.1,3.07-4.16,0-8.05-.67-11.69-2.01-3.64-1.34-6.86-3.29-9.65-5.85-2.79-2.56-4.98-5.69-6.57-9.39-1.59-3.7-2.39-7.91-2.39-12.63,0-4.04.77-7.43,2.3-10.16,1.54-2.73,3.56-4.79,6.06-6.19,2.5-1.39,5.24-2.09,8.19-2.09,2.73,0,5.41.7,8.02,2.09,2.62,1.4,4.79,3.57,6.53,6.53,1.74,2.96,2.6,6.86,2.6,11.69,0,3.76-.67,7.31-2.01,10.67-1.34,3.36-3.24,6.33-5.72,8.92-2.48,2.59-5.48,4.64-9.01,6.15-3.53,1.51-7.51,2.26-11.95,2.26Z"/>
      <path class="cls-1" d="m592.04,663.09c-1.37,0-2.83-.55-4.4-1.66-1.57-1.11-3.04-2.66-4.44-4.65-1.39-1.99-2.53-4.35-3.41-7.08-.88-2.73-1.32-5.72-1.32-8.96,0-5.35,1.14-9.96,3.41-13.83,2.28-3.87,5.31-6.86,9.09-8.96,3.78-2.1,7.95-3.16,12.5-3.16,5.58,0,10.31,1.25,14.21,3.76,3.9,2.5,6.88,5.85,8.96,10.03,2.08,4.18,3.12,8.86,3.12,14.04,0,3.64-.66,7.01-1.96,10.12-1.31,3.1-3.21,5.61-5.72,7.51-2.5,1.91-5.58,2.86-9.22,2.86-3.3,0-6.09-.77-8.37-2.3-2.28-1.54-4.01-3.7-5.21-6.49-1.19-2.79-1.79-6.03-1.79-9.73s.68-7.38,2.05-10.54c1.37-3.16,3.09-5.99,5.16-8.49,2.08-2.5,4.2-4.75,6.36-6.74l3.41,2.9c-2.11,1.88-4.08,4.03-5.93,6.44-1.85,2.42-3.33,5.02-4.44,7.81-1.11,2.79-1.66,5.75-1.66,8.88,0,4.38.88,7.67,2.65,9.86,1.76,2.19,4.07,3.29,6.91,3.29,2.67,0,4.92-1.12,6.74-3.37,1.82-2.25,2.73-6.16,2.73-11.74,0-2.9-.38-5.72-1.15-8.45-.77-2.73-1.92-5.19-3.46-7.38-1.54-2.19-3.47-3.93-5.8-5.21-2.33-1.28-5.07-1.92-8.19-1.92-3.81,0-7.17.9-10.07,2.69-2.9,1.79-5.18,4.27-6.83,7.43-1.65,3.16-2.48,6.79-2.48,10.88,0,4.67,1.11,8.75,3.33,12.25s5.01,6.33,8.37,8.49c-.34.46-.8.81-1.37,1.07-.57.26-1.17.38-1.79.38Zm22.96-42.25l-3.84-2.73c1.31-1.42,2.46-2.94,3.46-4.57,1-1.62,1.49-3.66,1.49-6.1s-.7-4.18-2.09-5.55c-1.39-1.37-3.34-2.05-5.85-2.05-.8,0-1.55.04-2.26.13-.71.08-1.47.27-2.26.55-.06-.28-.08-.54-.08-.77v-.51c0-.91.31-1.78.94-2.6.63-.82,1.52-1.49,2.69-2.01,1.17-.51,2.57-.77,4.22-.77,2.45,0,4.47.53,6.06,1.58,1.59,1.05,2.8,2.4,3.63,4.05.82,1.65,1.24,3.44,1.24,5.38,0,2.39-.36,4.52-1.07,6.4-.71,1.88-1.62,3.57-2.73,5.08-1.11,1.51-2.29,3-3.54,4.48Z"/>
    </g>
  </g>
</svg>